<svg width="70" height="31" viewBox="0 0 70 31" fill="none" xmlns="http://www.w3.org/2000/svg">
<g opacity="0.84">
<path d="M34.153 16.7359L26.9233 16.6469L24.5372 0.770775L21.651 22.1072L19.7966 8.23982L18.0833 16.5192L9.23639 16.4066L7.75522 23.428L4.81381 0.0578765L2.99883 16.3269L0.176032 16.2915L0.163305 17.2645L3.86842 17.309L4.87193 8.3125L7.51304 29.2922L10.0238 17.3907L18.8747 17.5059L19.5905 14.0503L21.6439 29.4241L24.5881 7.66919L26.0821 17.6118L34.1402 17.7108L34.153 16.7359Z" fill="#346C6C"/>
<path d="M66.7329 17.7158L65.3447 1.40491L61.7927 24.6901L60.496 17.6324L50.2043 17.4947L48.7073 9.17325L46.4917 22.9874L44.1646 1.58278L41.3638 17.391L34.176 17.2902L34.1633 18.2657L42.1795 18.3776L43.9339 8.47751L46.3065 30.302L48.7617 14.9872L49.3868 18.4602L59.6824 18.5955L61.8811 30.5586L65.07 9.65518L65.8382 18.6748L69.1095 18.7317L69.1234 17.7587L66.7329 17.7158Z" fill="#346C6C"/>
</g>
</svg>
