<svg width="38" height="21" viewBox="0 0 38 21" fill="none" xmlns="http://www.w3.org/2000/svg">
<path d="M8.77604 11.4805C8.92809 10.4799 9.12557 9.48844 9.38761 8.51074C9.4845 8.14921 9.61199 7.79564 9.70238 7.43268C9.79599 7.05674 10.0247 6.80125 10.3476 6.61315C10.4891 6.53074 10.6311 6.44932 10.7729 6.36745C10.8605 6.31079 10.9609 6.29581 11.0606 6.27998C11.487 6.21235 11.9197 6.23679 12.3477 6.19235C12.3845 6.18853 12.422 6.19676 12.4567 6.21169C12.5297 6.25622 12.5268 6.33294 12.5182 6.39855C12.4665 6.79418 12.6126 7.17011 12.629 7.55926C12.6366 7.7412 12.748 7.88932 12.8656 8.02471C12.9541 8.12657 13.0593 8.20967 13.1712 8.2843C13.4106 8.44401 13.4097 8.47063 13.1582 8.59851C13.0674 8.64467 12.9784 8.69626 12.8812 8.72688C12.7459 8.76952 12.7276 8.84956 12.7742 8.97432C12.8754 9.24562 12.9792 9.51609 13.0955 9.78092C13.4128 10.5038 13.6902 11.2397 13.8709 12.0101C13.9092 12.1735 13.9552 12.3373 14.0572 12.4781C14.0374 12.1894 13.9885 11.9071 13.9035 11.6312C13.712 11.0094 13.4202 10.4286 13.1652 9.8328C13.0619 9.59139 12.9561 9.35106 12.8544 9.10894C12.7629 8.89104 12.7756 8.85528 12.9744 8.7355C13.103 8.65798 13.2385 8.59308 13.3666 8.5145C13.4474 8.46497 13.4471 8.42859 13.3661 8.37942C13.1403 8.24226 12.9304 8.08649 12.7775 7.86466C12.7187 7.77935 12.6635 7.69281 12.6635 7.58664C12.6632 7.22653 12.5935 6.87291 12.5683 6.51527C12.56 6.39804 12.5525 6.27976 12.5782 6.16277C12.7029 5.98027 12.8856 5.92926 13.067 6.02569C13.1791 6.20413 13.2265 6.40921 13.2983 6.60377C13.4166 6.92423 13.5379 7.24371 13.6487 7.56712C13.8642 8.24106 13.9775 8.93339 14.0406 9.6368C14.0677 9.93883 14.088 10.2414 14.1183 10.5431C14.1328 10.6148 14.1324 10.6874 14.1324 10.76C14.1357 11.1073 14.1704 11.4533 14.182 11.8C14.1925 12.1155 14.2316 12.4297 14.2251 12.7454C14.222 12.8965 14.2448 13.0443 14.2637 13.1925C14.2794 13.3158 14.3541 13.3462 14.4554 13.2724C14.5786 13.1827 14.6633 13.0576 14.7438 12.9306C15.0347 12.4718 15.1808 11.9554 15.333 11.4418C15.5475 10.718 15.7883 10.0022 15.996 9.2762C16.0385 9.12751 16.0109 9.03586 15.8813 8.95218C15.7152 8.84488 15.5555 8.72666 15.3996 8.60416C15.2292 8.47029 15.2257 8.40756 15.3956 8.26808C15.5695 8.12534 15.7345 7.97222 15.9098 7.83157C16.0083 7.75248 16.0449 7.66291 16.023 7.53726C15.9687 7.22613 15.9414 6.91091 15.8872 6.59957C15.8735 6.52053 15.8647 6.43975 15.9052 6.36378C15.9502 6.31098 16.0132 6.29925 16.0768 6.29083C16.2077 6.27351 16.3348 6.23896 16.4628 6.20873C16.4639 6.30749 16.5364 6.2665 16.5782 6.26064C17.2618 6.16475 17.9452 6.06738 18.6281 5.96693C18.9509 5.91946 19.273 5.86654 19.5946 5.81178C19.6518 5.80205 19.6991 5.80444 19.7434 5.84135C19.8018 5.88902 19.7903 5.95693 19.7933 6.01964C19.8134 6.43475 19.7316 6.84022 19.6754 7.24807C19.6676 7.30479 19.64 7.35926 19.6575 7.42925C19.6581 7.44006 19.6861 7.41812 19.6656 7.4245C19.6589 7.42659 19.6572 7.42211 19.6555 7.41189C19.6407 7.32275 19.6853 7.24494 19.7043 7.16268C19.7938 6.77537 19.8316 6.38136 19.8622 5.98636C19.8676 5.91664 19.8686 5.84715 19.9044 5.78428C20.4774 5.59853 21.0645 5.46456 21.6457 5.30879C21.8361 5.25776 22.0281 5.21255 22.2193 5.16467C22.1806 5.47916 22.2363 5.7873 22.2948 6.09281C22.3462 6.36088 22.4321 6.62068 22.5558 6.86616C22.5822 6.91852 22.6104 6.97113 22.6044 7.0334C22.5997 7.06049 22.5869 7.0833 22.568 7.10291C22.3122 7.28157 22.0225 7.39653 21.746 7.53598C20.4364 8.19643 19.0156 8.45425 17.586 8.67907C17.5228 8.689 17.4568 8.69901 17.4098 8.63632C17.3712 8.42006 17.3492 8.20234 17.3506 7.98249C17.3535 7.53064 17.2953 7.0848 17.2176 6.64096C17.2094 6.5944 17.2065 6.54466 17.1597 6.50213C17.1151 6.55209 17.1281 6.61235 17.1277 6.66675C17.1259 6.94014 17.1193 7.21382 17.1289 7.48689C17.1397 7.79324 17.0827 8.09598 17.0935 8.40194C17.0969 8.49875 17.1015 8.59445 17.1248 8.68878C17.0335 9.19537 17.0244 9.71033 16.9699 10.2207C16.9183 10.7045 16.8685 11.1897 16.8499 11.6755C16.8274 12.2632 16.8054 12.8529 16.8914 13.4387C16.9003 13.5521 16.9099 13.6656 16.9484 13.7743C16.9715 13.8239 16.9866 13.8747 16.97 13.9299C16.9561 13.9651 16.9376 13.9961 16.8989 14.0089C16.7674 14.018 16.6481 13.9605 16.5224 13.9373C16.0103 13.8426 15.4899 13.834 14.9738 13.7811C14.8673 13.7701 14.7602 13.7623 14.6551 13.7433C14.5416 13.7227 14.4885 13.7561 14.473 13.8761C14.4462 14.0829 14.4241 14.291 14.3774 14.4951C14.3561 14.5688 14.3433 14.6468 14.2778 14.699C14.2127 14.7458 14.1369 14.7484 14.0622 14.7457C13.833 14.7377 13.6025 14.7713 13.3749 14.7244C13.3277 14.6955 13.3323 14.6544 13.3791 14.6458C13.545 14.6155 13.527 14.4944 13.5279 14.376C13.5307 14.0147 13.5914 13.6636 13.7084 13.3396C13.6315 13.4122 13.6302 13.4118 13.5964 13.52C13.5114 13.7923 13.4629 14.071 13.4543 14.3564C13.4484 14.5507 13.423 14.5747 13.2271 14.5804C12.5826 14.5992 11.9582 14.4784 11.3459 14.2938C10.7827 14.1241 10.2292 13.926 9.71352 13.6363C10.5987 14.2138 11.5746 14.5317 12.6193 14.6554C12.7244 14.6678 12.8494 14.6538 12.8989 14.7894C12.643 14.9325 12.3916 15.0836 12.0755 15.0206C11.8911 14.9838 11.7021 15.0054 11.5152 15.0045C10.7832 15.001 10.0506 14.9867 9.32296 15.0957C9.25561 15.1058 9.16758 15.1329 9.13556 15.0279C9.12547 14.9504 9.16031 14.8823 9.18336 14.812C9.29956 14.4579 9.42333 14.1063 9.51496 13.7444C9.54677 13.6188 9.52546 13.5301 9.40237 13.4668C9.31293 13.4207 9.23753 13.35 9.15758 13.288C8.98863 13.1572 8.83295 13.016 8.78176 12.7953C8.7572 12.711 8.73265 12.6266 8.70809 12.5423C8.7031 12.2792 8.64641 12.0176 8.69595 11.7526C8.71362 11.6581 8.7239 11.5638 8.77604 11.4805Z" fill="#53537E"/>
<path d="M9.16224 14.9872C9.14428 15.0999 9.22222 15.0595 9.27198 15.0525C10.1349 14.932 11.002 14.9296 11.8702 14.9569C11.8756 14.9571 11.8813 14.956 11.8863 14.9574C12.2566 15.0619 12.5763 14.9035 12.8994 14.7627C13.04 14.6723 13.1928 14.6711 13.3498 14.7013C13.6615 14.6909 13.9732 14.6805 14.2849 14.6701C14.4179 14.58 14.564 14.6127 14.7032 14.6375C14.8658 14.6666 15.0295 14.6907 15.1912 14.725C15.4316 14.7907 15.6698 14.8644 15.9067 14.9423C16.1103 15.0159 16.3217 15.063 16.5288 15.1246C16.5785 15.1395 16.6342 15.1405 16.6712 15.1851C16.7247 15.2559 16.6211 15.3625 16.7252 15.4218C16.7614 15.4305 16.7984 15.4369 16.8288 15.4607C16.887 15.5358 16.8342 15.6607 16.9424 15.7134C16.9977 15.7423 17.0602 15.7486 17.118 15.7696C17.2095 15.8007 17.2045 15.8977 17.2492 15.9608C17.4552 16.1055 17.6966 16.1651 17.9312 16.2349C18.6089 16.4367 19.3033 16.5626 19.9992 16.6843C20.5776 16.7854 21.1192 16.996 21.6274 17.2947C21.9693 17.4957 22.2836 17.7368 22.6161 17.9509C22.7655 18.0287 22.8179 18.1786 22.8866 18.3162C22.9005 18.3439 22.9212 18.375 22.8876 18.4021C22.8597 18.4247 22.8272 18.4185 22.7967 18.405C22.7567 18.3873 22.7275 18.3553 22.6948 18.3277C22.3338 18.0228 21.9581 17.7405 21.5183 17.5554C21.4137 17.5113 21.3079 17.4757 21.1931 17.476C21.161 17.4761 21.1247 17.4796 21.1137 17.5161C21.1054 17.5432 21.1256 17.5666 21.1438 17.5868C21.169 17.6148 21.1991 17.6372 21.2287 17.6603C21.5322 17.898 21.8426 18.1279 22.1243 18.3914C22.6653 18.8975 23.0613 19.4778 23.0403 20.2613C23.0371 20.3799 23.0162 20.496 22.9964 20.6116C22.9819 20.6963 23.001 20.7571 23.0636 20.8096C23.041 20.8377 23.0095 20.8428 22.9768 20.8406C22.6291 20.8182 22.2836 20.8665 21.9372 20.8786C21.335 20.8995 20.7337 20.9408 20.1305 20.9413C20.0153 20.9414 19.8995 20.9786 19.7813 20.9693C19.2335 20.3325 18.5753 19.8172 17.9421 19.2719C17.2609 18.6852 16.4537 18.4462 15.5965 18.3075C15.4685 18.2868 15.3424 18.2735 15.2139 18.2981C15.1923 18.2967 15.1695 18.2963 15.1508 18.2866C14.6702 18.0371 14.1349 18.0432 13.6192 17.9632C12.4126 17.776 11.2034 17.6049 10.0018 17.3863C9.95647 17.3766 9.90939 17.3781 9.86452 17.3654C9.31319 17.2546 8.75906 17.1589 8.20496 17.0638C7.78223 16.9913 7.37374 16.8529 6.94773 16.7991C6.5921 16.7541 6.23339 16.7426 5.87654 16.7094C5.60494 16.6841 5.3334 16.6593 5.06246 16.6267C5.0352 16.6146 5.01073 16.6002 5.01396 16.5644C5.20451 16.464 5.38338 16.3583 5.33942 16.0927C5.32665 16.0155 5.33771 15.9344 5.33785 15.8551C5.42132 15.8572 5.40126 15.9255 5.40783 15.9715C5.41753 16.0394 5.40626 16.109 5.42436 16.1905C5.41951 16.0444 5.47984 15.9999 5.61066 16.0416C5.70088 16.0704 5.74576 15.9689 5.82197 15.9512C5.95917 15.9995 6.03624 15.9136 6.11062 15.8218C6.36987 15.6415 6.67122 15.5712 6.96959 15.493C7.22231 15.4268 7.48725 15.4285 7.7384 15.3539C7.87069 15.3618 7.99154 15.311 8.11291 15.2725C8.38421 15.1865 8.66091 15.1235 8.93935 15.0688C9.0201 15.0529 9.08141 14.9956 9.16224 14.9872Z" fill="#F0F2F7"/>
<path d="M23.0623 20.8095C22.9541 20.8208 22.9169 20.776 22.9406 20.6684C23.1058 19.9203 22.8873 19.2895 22.3844 18.7241C22.0295 18.3251 21.5997 18.0213 21.1933 17.6865C21.1268 17.6317 21.007 17.5849 21.0534 17.4826C21.0971 17.386 21.2196 17.4199 21.3012 17.4427C21.6162 17.5307 21.905 17.6754 22.1681 17.8717C22.3901 18.0372 22.6244 18.1867 22.8208 18.3849C22.8294 18.3936 22.8505 18.3901 22.8915 18.3959C22.78 18.2542 22.7649 18.0741 22.6102 17.9816C22.6244 17.9643 22.6428 17.9511 22.665 17.9536C22.9883 17.9894 23.3164 17.9939 23.6252 18.1191C24.1427 18.329 24.6362 18.5835 25.0971 18.8991C25.3944 19.1027 25.6949 19.2862 26.0638 19.3442C26.3015 19.3816 26.5166 19.5012 26.7201 19.6352C26.9451 19.7834 27.0414 19.7604 27.2096 19.5535C27.3341 19.4005 27.4196 19.2162 27.579 19.0914C27.6305 19.0639 27.6839 19.0418 27.7275 18.9989C28.2084 18.5267 28.7277 18.0939 29.1986 17.6131C29.722 17.0787 30.2481 16.5446 30.7198 15.9613C30.8543 15.795 30.9911 15.6302 31.1302 15.4676C31.2109 15.3731 31.2806 15.2724 31.3209 15.1541C31.336 15.1096 31.3686 15.0556 31.3336 15.0172C31.2935 14.9732 31.2423 15.018 31.2026 15.0366C30.9555 15.1524 30.7077 15.2668 30.4619 15.3853C30.2931 15.4667 30.124 15.5473 29.9504 15.6175C29.8804 15.6458 29.8024 15.6973 29.7305 15.6143C29.7026 15.4918 29.6929 15.3674 29.69 15.2423C29.7056 15.168 29.7553 15.1218 29.8195 15.0885C30.3047 14.8369 30.662 14.436 31.0255 14.0448C31.1938 13.8636 31.3694 13.7051 31.5846 13.5742C31.8875 13.3899 32.1323 13.1324 32.2661 12.7901C32.3384 12.6576 32.4466 12.5528 32.5399 12.4365C32.822 12.0848 33.051 11.6986 33.2546 11.2987C33.5018 10.8133 33.7502 10.3286 34.0014 9.8453C34.0925 9.67002 34.2189 9.51719 34.3238 9.35046C34.5316 9.4779 34.5606 9.69458 34.5845 9.90449C34.6121 10.147 34.5571 10.3856 34.498 10.6193C34.196 11.8139 33.9396 13.0203 33.5867 14.2018C33.4058 14.8073 33.2429 15.4203 32.8951 15.9608C32.6073 16.4083 32.2585 16.8091 31.9297 17.2249C31.4546 17.8258 30.955 18.4069 30.4647 18.9955C30.1288 19.3988 29.7894 19.7993 29.4506 20.2002C29.4187 20.238 29.3812 20.2665 29.3399 20.2916C28.7754 20.3556 28.2113 20.4242 27.6461 20.4822C27.2443 20.5235 26.8409 20.5489 26.4384 20.5842C25.9832 20.6241 25.5284 20.6681 25.0732 20.7082C24.8983 20.7236 24.7215 20.7312 24.5474 20.737C24.0518 20.7535 23.559 20.824 23.0623 20.8095Z" fill="#E3E4EB"/>
<path d="M0.214515 18.9137C0.205229 18.9049 0.195944 18.896 0.186658 18.8872C0.152233 18.7813 0.050574 18.693 0.10228 18.5646C0.331501 18.3527 0.612724 18.2721 0.914665 18.2439C1.09747 18.3183 1.28238 18.3308 1.47008 18.2612C1.91174 18.2639 2.34119 18.3359 2.75677 18.4861C2.8119 18.5817 2.90311 18.6246 3.00454 18.6477C3.14277 18.6793 3.17762 18.7841 3.17921 18.9021C3.18028 18.9822 3.21163 19.0871 3.10851 19.1294C2.99225 19.1771 2.87547 19.1972 2.76534 19.0926C2.63104 18.9651 2.45056 19.0123 2.29054 19.0017C2.19118 18.9952 2.09678 18.9909 2.01591 18.9357C1.85864 18.8282 1.68472 18.7451 1.54355 18.6143C1.52304 18.5953 1.49729 18.5708 1.4759 18.5933C1.41657 18.6557 1.36517 18.7243 1.37556 18.82C1.38367 18.8948 1.38167 18.9651 1.47789 18.9972C1.67876 19.0643 1.84149 19.2175 2.05628 19.2582C2.0995 19.2664 2.11172 19.3189 2.13104 19.3575C2.20139 19.498 2.28019 19.537 2.41302 19.4729C2.52469 19.419 2.62972 19.416 2.7378 19.4627C2.9105 19.5372 3.10449 19.5361 3.27483 19.6213C3.34579 19.6568 3.42013 19.6327 3.48746 19.588C3.71186 19.439 3.95335 19.407 4.20795 19.4953C4.29813 19.5266 4.35959 19.5201 4.39759 19.4177C4.43642 19.3131 4.4125 19.2656 4.30183 19.2337C4.17924 19.1983 4.1759 19.1376 4.27983 19.0603C4.31814 19.0318 4.37796 19.0147 4.37755 18.9619C4.37632 18.7992 4.49021 18.8127 4.59826 18.7991C4.73151 18.7825 4.86396 18.7641 4.99841 18.7747C5.04615 18.7785 5.10153 18.7794 5.11992 18.8344C5.13759 18.8874 5.10511 18.9355 5.06346 18.9567C4.97182 19.0035 4.9831 19.0725 4.98537 19.1577C4.98921 19.3013 4.97485 19.4464 4.89715 19.5761C4.86484 19.6301 4.7737 19.6727 4.8425 19.7529C4.90873 19.8302 4.98029 19.9072 5.10008 19.8862C5.14785 19.8778 5.1944 19.8646 5.23907 19.8466C5.37821 19.7906 5.51609 19.7333 5.66876 19.7211C5.75663 19.714 5.81209 19.655 5.85092 19.5794C5.86073 19.5603 5.87278 19.5417 5.87441 19.52C5.87927 19.456 5.6525 19.1852 5.58702 19.1805C5.51732 19.1754 5.44837 19.1691 5.38072 19.1502C5.28529 19.1235 5.21077 19.0743 5.20855 18.9659C5.20612 18.8474 5.25804 18.7518 5.37643 18.7211C5.48239 18.6936 5.57519 18.6436 5.66986 18.5937C5.74641 18.5713 5.82401 18.5747 5.90179 18.5831C6.16407 18.6926 6.43961 18.6086 6.70817 18.6334C6.80724 18.6426 6.9101 18.6482 7.01158 18.6473C7.06727 18.6468 7.11552 18.6696 7.15208 18.7141C7.17234 18.7387 7.19549 18.7754 7.22862 18.7632C7.40026 18.7004 7.52548 18.8253 7.66884 18.8702C7.87727 18.9355 7.92203 19.189 7.76002 19.3339C7.71423 19.3748 7.67512 19.3687 7.63161 19.3362C7.56718 19.288 7.50261 19.239 7.42741 19.2092C7.35511 19.1805 7.30619 19.187 7.30046 19.2864C7.27699 19.6937 7.1633 19.83 6.78122 19.9224C6.74545 19.931 6.69963 19.9308 6.69339 19.9776C6.68784 20.0191 6.72366 20.0457 6.7531 20.0666C6.85869 20.1418 6.98749 20.1671 7.10388 20.2196C7.25354 20.2871 7.42636 20.2903 7.57876 20.3629C7.65222 20.3979 7.72051 20.324 7.79488 20.3216C7.98213 20.3154 8.16904 20.3129 8.35319 20.2681C8.42242 20.2512 8.48984 20.286 8.55406 20.3137C8.62784 20.3455 8.69942 20.382 8.7738 20.4128C8.9796 20.4981 9.17951 20.5012 9.371 20.3765C9.50634 20.2883 9.63682 20.2878 9.77615 20.3726C9.964 20.4871 10.152 20.4232 10.3299 20.3443C10.4617 20.2859 10.4673 20.2154 10.3618 20.1172C10.2454 20.0088 10.1651 19.8629 10.0079 19.7957C9.9401 19.7667 9.92682 19.6951 9.9656 19.6303C10.0167 19.5449 9.98107 19.5 9.90198 19.4727C9.79249 19.4348 9.7367 19.3597 9.73329 19.2445C9.73045 19.1489 9.67448 19.1149 9.58598 19.1149C9.45437 19.115 9.30801 19.0469 9.21536 19.2115C9.19592 19.246 9.13727 19.2426 9.09438 19.2403C8.95068 19.2327 8.8131 19.1767 8.66583 19.1894C8.62376 19.193 8.58423 19.1595 8.56361 19.1198C8.4968 18.991 8.38143 18.9914 8.24083 18.9908C8.27784 19.0615 8.38264 19.1005 8.29766 19.1852C8.20829 19.2744 8.03588 19.2912 7.92466 19.219C7.83847 19.163 7.8617 19.0961 7.89162 19.0228C7.97327 18.8226 8.0973 18.7525 8.35338 18.7778C8.52783 18.795 8.69725 18.8358 8.87788 18.823C8.99042 18.815 9.09679 18.9295 9.22798 18.8958C9.32161 18.8718 9.41895 18.8716 9.51379 18.854C9.53056 18.8511 9.54731 18.8507 9.56421 18.852C9.76415 18.8871 9.96595 18.8975 10.1686 18.8979C10.2221 18.8975 10.2756 18.8986 10.3286 18.9069C10.4352 18.9416 10.5448 18.9311 10.6539 18.9275C10.7489 18.9277 10.8438 18.9251 10.9387 18.9279C11.1343 18.9415 11.3284 18.9696 11.5259 18.9652C11.6697 18.9621 11.8116 18.95 11.9534 18.9295C12.0206 18.9241 12.0879 18.9267 12.1551 18.9276C12.5585 18.9284 12.9555 18.862 13.3541 18.814C13.3808 18.8074 13.408 18.8047 13.4353 18.8036C13.5144 18.8057 13.5932 18.8034 13.6697 18.7785C13.7051 18.772 13.7408 18.7685 13.7769 18.7687C14.0258 18.7424 14.2741 18.7124 14.5247 18.7022C14.8636 18.6884 15.1973 18.7229 15.5271 18.7969C15.7013 18.8361 15.8551 18.8152 15.978 18.6739C16.0551 18.6396 16.1272 18.6687 16.1935 18.7014C16.9559 19.078 17.7381 19.42 18.4068 19.9612C18.6695 20.1738 18.918 20.4003 19.1143 20.6784C19.1421 20.7178 19.1705 20.7565 19.1928 20.7995C19.2725 20.9526 19.2636 20.9718 19.1 20.9979C17.6638 20.9986 16.2276 21.0019 14.7915 20.9985C14.3524 20.9974 13.9134 20.9781 13.4743 20.9672C13.2468 20.9349 13.0179 20.9627 12.7899 20.9527C12.7267 20.95 12.6622 20.9652 12.6003 20.9406C12.4949 20.9386 12.3895 20.9366 12.2842 20.9345C12.1016 20.8965 11.9149 20.9448 11.7323 20.9083C11.6913 20.9071 11.6502 20.9058 11.6092 20.9045C11.5059 20.8692 11.3985 20.9009 11.2939 20.8857C11.1474 20.83 10.9965 20.8416 10.8452 20.8566C10.701 20.8498 10.5561 20.8712 10.4125 20.8442C10.3825 20.843 10.3525 20.8417 10.3225 20.8404C10.241 20.8041 10.1544 20.8365 10.0713 20.8217C9.94664 20.7704 9.81637 20.7924 9.68767 20.7923C9.58603 20.7858 9.48343 20.8065 9.38273 20.7801C9.34197 20.7781 9.30121 20.7762 9.26045 20.7742C9.22088 20.7455 9.1729 20.7704 9.13143 20.7541C9.0172 20.672 8.89785 20.7267 8.78001 20.741C8.72601 20.7405 8.67201 20.74 8.61801 20.7394C8.58334 20.7126 8.54545 20.6965 8.50032 20.6956C8.21947 20.6899 7.93667 20.6694 7.66284 20.6223C7.39823 20.5768 7.13146 20.5916 6.86679 20.5412C6.64707 20.4994 6.41542 20.4966 6.18953 20.4708C5.9018 20.4381 5.61619 20.3904 5.32938 20.3516C5.02028 20.3098 4.7126 20.2596 4.4041 20.2145C4.12608 20.1738 3.85412 20.1022 3.57658 20.0592C3.51869 20.0503 3.45839 20.0669 3.40308 20.0398L3.40574 20.0421C3.29995 20.0087 3.18884 20.001 3.08142 19.9755L3.08298 19.9781C2.58474 19.8614 2.09659 19.7063 1.59856 19.5888C1.56559 19.5896 1.53111 19.5962 1.50634 19.5651C1.4373 19.5031 1.34823 19.4838 1.26488 19.4532C0.942912 19.3351 0.640092 19.1802 0.358561 18.9842C0.313989 18.9532 0.262838 18.9365 0.214515 18.9137Z" fill="#F2923F"/>
<path d="M32.6791 7.90843C32.886 8.0508 33.1262 8.12486 33.3488 8.23517C33.4754 8.29792 33.6245 8.32605 33.7095 8.45696C33.734 8.52813 33.6925 8.5824 33.6584 8.63505C33.2707 9.23334 32.8643 9.81631 32.3821 10.3458C31.9846 10.7821 31.5688 11.2001 31.1407 11.6041C30.7485 11.9743 30.3684 12.3607 29.9321 12.6826C29.8847 12.7176 29.8402 12.7571 29.7872 12.7836C29.6269 12.8637 29.4995 12.8322 29.3952 12.688C29.3351 12.6051 29.2927 12.5124 29.2462 12.4218C29.1977 12.3274 29.1932 12.2375 29.2618 12.1513C29.3337 12.0609 29.2955 12.029 29.2014 11.9834C29.0106 11.8907 28.8149 11.8273 28.605 11.803C28.2259 11.759 27.9368 11.5259 27.6287 11.3343C27.2501 11.0988 26.8515 10.902 26.4464 10.7183C26.2663 10.6366 26.2554 10.6211 26.3585 10.452C26.378 10.42 26.3956 10.3867 26.4214 10.3588C26.6302 10.2447 26.8658 10.256 27.0907 10.2196C27.2767 10.1895 27.2949 10.1788 27.2957 9.98849C27.2964 9.82707 27.3115 9.81479 27.473 9.84398C27.7393 9.89211 27.8635 9.80372 27.8736 9.53424C27.8793 9.38116 27.9549 9.28551 28.067 9.20392C28.2782 9.05016 28.4364 8.84979 28.5768 8.63275C28.6474 8.52359 28.6775 8.41785 28.5665 8.31671C28.5122 8.26731 28.5251 8.21755 28.5504 8.15801C28.6542 7.91419 28.6087 7.75743 28.3836 7.63509C28.2764 7.5768 28.2252 7.51762 28.2809 7.39758C28.3222 7.30828 28.2503 7.22064 28.2716 7.1306C28.3717 7.08127 28.4676 7.116 28.5637 7.14545C28.7076 7.25234 28.8599 7.20637 29.0118 7.17013C29.1798 7.14834 29.3407 7.20105 29.5048 7.21882C29.9147 7.26321 30.3225 7.32371 30.7293 7.39095C30.8343 7.4083 30.9329 7.45171 31.0395 7.4599C31.0841 7.46352 31.1338 7.4459 31.1687 7.49049C31.2247 7.54953 31.2984 7.51424 31.3631 7.52659C31.7887 7.60771 32.2079 7.7124 32.6151 7.86219C32.6404 7.87152 32.6627 7.88623 32.6791 7.90843Z" fill="#F0F1F7"/>
<path d="M13.0589 6.04156C12.8758 5.97503 12.7279 6.02951 12.606 6.17322C12.5833 6.23522 12.5577 6.29172 12.4764 6.23989C11.9294 6.28557 11.3747 6.24151 10.8354 6.38002C10.8173 6.38468 10.7947 6.37204 10.7742 6.36748C10.4761 5.71526 10.5439 5.06473 10.7836 4.41516C10.9226 4.0387 11.1142 3.69843 11.4197 3.42639C11.6978 3.17877 11.7543 2.84038 11.7647 2.48975C11.7751 2.13686 11.731 1.78176 11.7979 1.43127C11.8977 0.908847 12.1829 0.558407 12.7243 0.449977C12.9298 0.408803 13.126 0.33941 13.3149 0.247355C14.2737 -0.219845 15.2655 -0.0154778 15.9844 0.778002C16.6195 1.47907 16.809 2.29496 16.6521 3.20879C16.5785 3.63785 16.6038 4.05941 16.704 4.48301C16.8466 5.08599 16.7588 5.66328 16.4641 6.20872C16.3761 6.34001 16.2251 6.28971 16.106 6.33145C16.0477 6.35189 15.9836 6.35578 15.9221 6.36717C15.8974 6.4078 15.8628 6.43321 15.8146 6.43822C15.5797 6.43126 15.4758 6.56966 15.3842 6.77061C14.8975 7.83797 14.667 8.96629 14.5507 10.1244C14.5443 10.1879 14.5675 10.2695 14.4737 10.2958C14.4088 10.2228 14.4252 10.1334 14.4342 10.051C14.5057 9.40286 14.5853 8.75598 14.7517 8.12329C14.8757 7.65173 15.0462 7.19671 15.2328 6.74716C15.3049 6.5735 15.1599 6.37641 14.9715 6.38874C14.9092 6.39281 14.8796 6.43561 14.8492 6.48056C14.8098 6.53907 14.7703 6.599 14.6833 6.57478C14.5773 6.47336 14.6263 6.3442 14.6253 6.22612C14.6244 6.13529 14.652 6.04658 14.688 5.96227C14.7273 5.8801 14.8037 5.87253 14.8796 5.87558C15.0487 5.8824 15.1921 5.82222 15.3272 5.72594C15.696 5.46319 15.9339 5.11324 16.0429 4.67423C16.1388 4.28813 16.1558 3.89101 16.2105 3.49914C16.2219 3.41757 16.1857 3.38123 16.113 3.36162C15.9941 3.32951 15.8705 3.31624 15.7539 3.27573C15.7036 3.25827 15.6439 3.23683 15.6545 3.16899C15.6656 3.09756 15.7284 3.08145 15.7897 3.08181C15.9094 3.0825 16.024 3.11523 16.1307 3.16516C16.2356 3.21427 16.2603 3.17165 16.2715 3.07587C16.2815 2.99071 16.2631 2.92094 16.2161 2.84952C16.0955 2.66654 15.9242 2.53713 15.7564 2.40493C15.4953 2.19921 15.2098 2.0287 14.9322 1.84672C14.8323 1.78122 14.7857 1.78881 14.7281 1.9033C14.5126 2.33161 14.2055 2.68372 13.8094 2.95759C13.6704 3.05368 13.5223 3.1273 13.3559 3.15198C13.2237 3.17159 13.1852 3.24415 13.2013 3.36427C13.2056 3.39622 13.215 3.42706 13.2208 3.45855C13.2318 3.51798 13.2835 3.59757 13.2048 3.62906C13.1411 3.65451 13.0947 3.57937 13.0532 3.53152C12.9999 3.47014 12.9702 3.39501 12.9339 3.32334C12.8542 3.16574 12.7064 3.15702 12.6101 3.30116C12.4559 3.53197 12.6059 4.09559 12.8536 4.22012C12.9205 4.25374 12.9861 4.25831 13.0543 4.22734C13.1682 4.17557 13.2136 4.23189 13.2254 4.33747C13.242 4.48646 13.2627 4.63481 13.2908 4.78231C13.3157 4.95561 13.2739 5.12528 13.2647 5.29668C13.2341 5.48433 13.219 5.67487 13.1668 5.85862C13.1471 5.92815 13.1402 6.00745 13.0589 6.04156Z" fill="#492A36"/>
<path d="M36.8304 9.58337C37.0218 9.9181 37.0904 10.2938 37.184 10.6602C37.2541 10.9347 37.3039 11.2143 37.3706 11.4897C37.4183 11.6869 37.4092 11.8748 37.3605 12.0735C36.7923 14.3908 36.2286 16.7091 35.6718 19.0292C35.6297 19.2046 35.5453 19.2664 35.3793 19.3004C34.1423 19.5542 32.9014 19.7845 31.6515 19.9656C31.6304 19.8929 31.6807 19.8439 31.7119 19.7899C32.2252 18.9032 32.8237 18.0721 33.3928 17.2219C34.1198 16.136 34.7153 14.982 35.2158 13.7752C35.5812 12.894 35.9294 12.0064 36.2738 11.1171C36.448 10.6673 36.5791 10.2025 36.7384 9.74751C36.7593 9.68797 36.769 9.6208 36.8304 9.58337Z" fill="#53547E"/>
<path d="M29.3398 20.2917C29.5508 20.0003 29.7937 19.7358 30.0275 19.4634C30.2712 19.1795 30.4981 18.8813 30.7379 18.594C30.9446 18.3463 31.1629 18.1083 31.3692 17.8603C31.5948 17.5892 31.8186 17.3162 32.0322 17.0355C32.3002 16.6832 32.5921 16.3496 32.8369 15.9787C33.1399 15.5197 33.3021 15.0062 33.46 14.4877C33.6279 13.9365 33.7823 13.3817 33.9222 12.8231C34.1256 12.011 34.3263 11.1981 34.5114 10.3817C34.5938 10.0185 34.5842 9.6554 34.3253 9.3455C34.1776 9.24173 34.0565 9.10512 33.8938 9.01721C33.8323 8.98397 33.8766 8.95074 33.9351 8.96911C34.5557 9.03497 35.1804 9.06291 35.7973 9.16417C36.1039 9.2145 36.405 9.28354 36.6706 9.45715C36.7436 9.56448 36.7044 9.67382 36.6736 9.78131C36.4238 10.6536 36.0833 11.4932 35.7549 12.3374C35.3934 13.2667 35.0151 14.1891 34.5844 15.0884C34.2833 15.7169 33.9288 16.3176 33.5528 16.9048C33.0816 17.6406 32.5576 18.3412 32.0995 19.0856C31.9173 19.3816 31.7249 19.6714 31.5591 19.9774C30.9933 20.0621 30.428 20.151 29.8612 20.2289C29.6881 20.2527 29.5183 20.3113 29.3398 20.2917Z" fill="#547695"/>
<path d="M0.929744 18.2681C0.641168 18.3078 0.377385 18.4164 0.12532 18.5576C0.10011 18.5943 0.0745593 18.6305 0.0229965 18.6299C-0.0368087 18.4791 0.0284053 18.3599 0.122498 18.2507C0.231774 18.1239 0.364728 18.0247 0.508522 17.9408C0.976705 17.6676 1.47065 17.4536 1.9915 17.3025C2.06807 17.2699 2.13845 17.2854 2.20191 17.3339C2.35122 17.4482 2.52737 17.4955 2.70595 17.5323C3.34145 17.6632 3.98372 17.7355 4.63178 17.7739C4.97439 17.7942 5.31616 17.7957 5.65851 17.8009C6.49563 17.8135 7.32476 17.7142 8.15455 17.6244C8.27724 17.6111 8.39911 17.5937 8.52058 17.6275C8.60012 17.6948 8.52717 17.7049 8.46547 17.737C8.71812 17.6636 8.95643 17.6138 9.19037 17.5465C9.29192 17.5173 9.39235 17.4779 9.50208 17.4937C9.52888 17.5001 9.56561 17.5102 9.56878 17.533C9.59295 17.7066 9.72655 17.7324 9.86225 17.7749C9.99195 17.8155 10.063 17.9679 10.0253 18.122C9.97002 18.3481 10.0883 18.475 10.2964 18.4697C10.6553 18.4605 11.0077 18.5664 11.3688 18.5147C11.5175 18.4935 11.6504 18.4784 11.7224 18.3161C11.7668 18.216 11.8677 18.2192 11.9619 18.3081C12.1282 18.4649 12.3372 18.4918 12.5509 18.5025C12.593 18.5047 12.6386 18.4975 12.6775 18.4828C13.0709 18.3345 13.47 18.4518 13.8664 18.4543C13.9253 18.4546 13.985 18.4672 14.0418 18.4468C14.1909 18.3935 14.289 18.4753 14.3776 18.5742C14.4547 18.6602 14.4318 18.7135 14.3167 18.7337C14.1336 18.7657 13.9417 18.7372 13.7653 18.8143C13.733 18.8144 13.7008 18.8144 13.6686 18.8145C13.5915 18.8108 13.5133 18.799 13.4435 18.8466C13.422 18.8466 13.4006 18.8466 13.3791 18.8466C12.9708 18.8811 12.5614 18.9058 12.1568 18.9752C12.0924 18.9752 12.028 18.9753 11.9636 18.9753C11.7468 18.9654 11.5298 18.9745 11.3131 18.978C11.1866 18.98 11.0606 18.9284 10.9343 18.9753C10.8378 18.9752 10.7412 18.9752 10.6446 18.9751C10.5412 18.9267 10.4313 18.9434 10.3231 18.9431C10.2694 18.9431 10.2158 18.9431 10.1621 18.943C9.96218 18.8857 9.75511 18.8963 9.551 18.8788C9.54019 18.879 9.52938 18.8791 9.51857 18.8793C9.32386 18.8894 9.12832 18.9293 8.93874 18.8399C8.85892 18.8023 8.7718 18.8502 8.68519 18.8358C8.25847 18.7653 7.82496 18.7571 7.39626 18.7035C7.11096 18.6678 6.82505 18.6459 6.53773 18.6322C6.33021 18.6223 6.12255 18.6506 5.91583 18.6216C5.83 18.6217 5.74418 18.6218 5.65835 18.6219C5.38659 18.7365 5.09316 18.7231 4.80906 18.7625C4.20144 18.8466 3.60756 18.7329 3.01469 18.6202C2.92647 18.6035 2.83497 18.5885 2.76326 18.525C2.47952 18.4225 2.18253 18.38 1.88675 18.3325C1.74035 18.309 1.59342 18.2883 1.44427 18.2999C1.27247 18.2939 1.098 18.3314 0.929744 18.2681Z" fill="#F3A646"/>
<path d="M4.88822 16.6189C4.94323 16.6217 4.99933 16.6331 5.04969 16.5988C5.50286 16.6339 5.95635 16.6655 6.40917 16.7049C7.56856 16.8058 8.68558 17.1492 9.83508 17.3075C9.84943 17.3095 9.86219 17.323 9.87569 17.3312C9.87796 17.4155 9.8051 17.4216 9.75431 17.432C9.39316 17.5061 9.03436 17.5902 8.67581 17.6757C8.63295 17.6859 8.59097 17.6909 8.55495 17.657C8.10169 17.6561 7.65619 17.741 7.20642 17.7783C7.06332 17.7902 6.92019 17.8018 6.77722 17.8141C6.16977 17.8662 5.55938 17.8698 4.95164 17.8442C4.16096 17.811 3.37134 17.742 2.59793 17.5579C2.43291 17.5186 2.26363 17.477 2.14199 17.3413C2.10048 17.295 2.04495 17.3045 1.99219 17.3025C2.44194 17.1284 2.91145 17.0243 3.38039 16.9217C3.8811 16.8121 4.38545 16.7191 4.88822 16.6189Z" fill="#FBB851"/>
<path d="M33.9359 8.96908C33.9311 8.97134 33.9252 8.9725 33.9218 8.97609C33.9158 8.98249 33.9115 8.99036 33.9064 8.99761C34.0314 9.04758 34.1382 9.12406 34.2296 9.22206C34.2652 9.26029 34.3106 9.29143 34.3262 9.3455C34.3253 9.39997 34.3153 9.45356 34.2828 9.49726C33.9682 9.91904 33.7525 10.3964 33.5224 10.8644C33.1831 11.5548 32.8087 12.2209 32.2952 12.7998C32.2571 12.8338 32.2106 12.8471 32.1616 12.8461C31.4796 12.8331 30.807 12.944 30.1301 12.9988C30.1196 12.9997 30.1088 12.9975 30.0985 12.9966C29.9605 12.9177 29.9569 12.8291 30.1188 12.7334C30.3061 12.6226 30.4534 12.4699 30.6146 12.3305C31.0039 11.9938 31.332 11.5973 31.6898 11.2301C32.006 10.9056 32.3176 10.5741 32.6101 10.2265C32.9301 9.84622 33.2582 9.47246 33.5204 9.04753C33.5539 8.99338 33.5882 8.93804 33.647 8.90564C33.747 8.90983 33.8435 8.93054 33.9359 8.96908Z" fill="#D9DBE6"/>
<path d="M33.6466 8.90562C33.4997 9.19106 33.3018 9.4409 33.104 9.69155C32.7067 10.1952 32.2702 10.6632 31.8305 11.1296C31.3541 11.6348 30.8845 12.1458 30.3727 12.6162C30.2882 12.6939 30.1685 12.7112 30.0911 12.7982C30.0485 12.8461 29.989 12.8849 30.0432 12.9598C29.9716 13.0601 29.8821 13.145 29.799 13.2349C29.7048 13.3366 29.5813 13.335 29.4555 13.2974C29.2605 13.2391 29.0629 13.191 28.8614 13.1611C28.8123 13.1544 28.769 13.1341 28.7322 13.1015C28.2459 12.6702 27.6586 12.428 27.0598 12.2072C27.0096 12.1887 26.9586 12.1726 26.9102 12.1495C26.7211 12.0625 26.533 11.9734 26.3413 11.8923C26.2533 11.8552 26.1903 11.8068 26.1708 11.7011C26.1402 11.5361 26.0514 11.4864 25.8812 11.5111C25.8123 11.521 25.7358 11.5732 25.6772 11.487C25.6605 11.2331 25.794 11.024 25.883 10.8018C25.8986 10.763 25.9246 10.7287 25.949 10.6943C26.0355 10.5716 26.1475 10.4776 26.2801 10.4092C26.3289 10.3841 26.3795 10.3425 26.4398 10.3867C26.415 10.4688 26.3064 10.5313 26.3321 10.6094C26.3579 10.6874 26.4773 10.6774 26.5523 10.7145C27.0604 10.9656 27.5657 11.221 28.033 11.5448C28.2492 11.6947 28.4982 11.7515 28.7539 11.7851C28.9099 11.8056 29.0533 11.861 29.189 11.9382C29.2491 11.9724 29.3091 12.0021 29.4128 11.9563C29.3484 12.0599 29.3352 12.1446 29.2722 12.2049C29.2646 12.2122 29.2542 12.2217 29.2538 12.2306C29.2426 12.4465 29.3682 12.608 29.5021 12.7448C29.5891 12.8337 29.7217 12.7887 29.8287 12.7106C30.1557 12.4719 30.4464 12.1919 30.7456 11.9211C31.1979 11.5115 31.6247 11.0759 32.0536 10.6426C32.5011 10.1907 32.8978 9.69617 33.2558 9.17093C33.4147 8.93782 33.5871 8.71292 33.7102 8.45691C33.818 8.51063 33.8275 8.59011 33.757 8.67693C33.7011 8.74578 33.6834 8.82953 33.6466 8.90562Z" fill="#E3E4EB"/>
<path d="M28.5647 7.1454C28.4696 7.1964 28.376 7.13288 28.2815 7.14167C28.1468 7.09655 28.0489 7.01918 28.0174 6.87015C27.9804 6.69491 27.8631 6.58036 27.7106 6.49853C27.5075 6.38955 27.2885 6.314 27.086 6.20343C27.0495 6.18353 27.016 6.16477 26.977 6.21685C26.869 6.3609 26.7963 6.37597 26.6469 6.28063C26.4523 6.15642 26.279 6.00317 26.1099 5.84729C25.9804 5.72791 25.8501 5.60758 25.746 5.46269C25.6615 5.345 25.608 5.33193 25.4995 5.43409C25.3916 5.53568 25.323 5.52165 25.2443 5.40685C25.1786 5.31091 25.0945 5.28803 25.005 5.38472C24.9941 5.39651 24.9822 5.41507 24.9688 5.41528C24.8074 5.41773 24.6622 5.43586 24.5962 5.62307C24.5832 5.65993 24.4969 5.61625 24.4505 5.59299C24.336 5.53554 24.2446 5.55834 24.1693 5.65986C24.095 5.76014 24.1013 5.85691 24.1754 5.95477C24.2127 6.00397 24.2751 6.04183 24.2593 6.11888C24.1918 6.21291 24.08 6.22899 23.9851 6.27452C23.7926 6.36689 23.5949 6.44796 23.4021 6.53988C23.3417 6.56865 23.2773 6.60986 23.2083 6.55421C23.1563 6.39911 23.1856 6.22499 23.0964 6.07858C23.0251 5.77997 22.9901 5.47443 22.9253 5.1745C22.9186 5.14361 22.9206 5.11103 22.9419 5.08365C23.503 4.9084 24.065 4.73203 24.6462 4.64025C25.0743 4.57264 25.4918 4.66609 25.8782 4.85208C26.466 5.13502 27.0495 5.42824 27.6238 5.73747C28.1153 6.00211 28.4614 6.39519 28.5742 6.96226C28.5869 7.02581 28.6106 7.08645 28.5647 7.1454Z" fill="#FBBB8A"/>
<path d="M19.1 20.9979C19.2351 20.9802 19.2228 20.9159 19.1632 20.8224C18.9592 20.5022 18.6916 20.2414 18.3984 20.0068C17.6814 19.4333 16.8561 19.0516 16.0254 18.6804C15.7579 18.5916 15.5069 18.4671 15.2642 18.3253C15.2449 18.314 15.2384 18.2927 15.2407 18.2699C15.4229 18.1847 15.5971 18.2713 15.7709 18.3022C16.1846 18.3756 16.5954 18.463 16.9874 18.6226C17.3781 18.7818 17.7012 19.0419 18.0297 19.2969C18.531 19.6861 19.0045 20.1077 19.458 20.5496C19.5797 20.6681 19.7494 20.772 19.7806 20.9692C19.5529 20.9602 19.3264 20.9772 19.1 20.9979Z" fill="#E3E4EB"/>
<path d="M31.5603 19.9773C31.5035 19.9654 31.5153 19.9425 31.5402 19.9022C32.0603 19.0614 32.5948 18.2302 33.1619 17.4201C33.5545 16.8593 33.9087 16.2746 34.234 15.6728C34.9244 14.3956 35.4342 13.0395 35.9626 11.6917C36.2101 11.0603 36.4459 10.4252 36.6362 9.77374C36.6669 9.66852 36.6733 9.5641 36.6718 9.45706C36.7774 9.43291 36.8033 9.50945 36.8313 9.58335C36.541 10.5277 36.2008 11.454 35.8331 12.3707C35.4254 13.3872 35.0236 14.4062 34.5252 15.3832C34.0681 16.2791 33.5269 17.1234 32.9517 17.9471C32.4932 18.6035 32.0604 19.2766 31.6524 19.9656C31.6217 19.9695 31.591 19.9734 31.5603 19.9773Z" fill="#3E3962"/>
<path d="M22.9424 5.08365C23.0323 5.40863 23.0732 5.74287 23.1302 6.07409C23.1874 6.26591 23.1744 6.46282 23.1728 6.6588C23.1776 6.77165 23.1571 6.87934 23.1058 6.98057C23.0367 7.08729 22.9574 7.17803 22.8122 7.16248C22.7365 7.12909 22.6509 7.11124 22.6027 7.03296C22.6238 6.97166 22.5987 6.91907 22.573 6.86555C22.3909 6.48626 22.3027 6.0852 22.2744 5.66596C22.2626 5.49267 22.2588 5.318 22.2344 5.14539C22.3444 5.06939 22.4686 5.02327 22.5913 4.97305C22.741 4.91177 22.8619 4.93051 22.9424 5.08365Z" fill="#52537E"/>
<path d="M3.40234 20.0398C3.69056 20.0183 3.96218 20.1031 4.23865 20.1636C4.43755 20.2072 4.64967 20.2031 4.84311 20.2468C5.07812 20.2999 5.31506 20.3206 5.55012 20.3592C5.9193 20.42 6.29152 20.5033 6.66185 20.5004C6.87774 20.4987 7.06847 20.5749 7.27449 20.5809C7.32109 20.5822 7.35626 20.5671 7.39293 20.5425C7.44109 20.5102 7.50166 20.5025 7.54448 20.5373C7.71002 20.6716 7.90521 20.6014 8.08597 20.6294C8.26414 20.657 8.45287 20.6431 8.61727 20.7394C7.79414 20.6584 6.96933 20.594 6.14869 20.4885C5.24811 20.3728 4.34889 20.2485 3.45889 20.0656C3.43911 20.0615 3.42115 20.0486 3.40234 20.0398Z" fill="#F1923F"/>
<path d="M22.2328 5.14539C22.3033 5.15668 22.2886 5.21175 22.2903 5.25801C22.3051 5.65279 22.3366 6.0446 22.4476 6.42724C22.4987 6.60327 22.5572 6.7766 22.6561 6.92854C22.7127 7.01537 22.6327 7.0037 22.6098 7.03457C22.6028 7.04848 22.5926 7.05159 22.5791 7.04391C22.4437 6.73127 22.308 6.41868 22.2429 6.08162C22.1913 5.81494 22.1764 5.5444 22.1527 5.2745C22.1465 5.2033 22.2207 5.21373 22.2192 5.16469C22.2195 5.1553 22.224 5.14887 22.2328 5.14539Z" fill="#3E3256"/>
<path d="M19.9043 5.7843C19.9357 6.33845 19.7746 7.2808 19.5957 7.54593C19.6537 6.96791 19.7885 6.41197 19.7433 5.84138C19.7893 5.80072 19.8467 5.79235 19.9043 5.7843Z" fill="#3E345B"/>
<path d="M0.214844 18.9138C0.273864 18.9092 0.330325 18.908 0.379565 18.9527C0.502596 19.0645 0.668113 19.1101 0.797641 19.2055C0.96905 19.3319 1.16798 19.3797 1.35663 19.4573C1.4167 19.4821 1.4718 19.5079 1.50663 19.5651C1.10466 19.4324 0.714503 19.2735 0.360516 19.0372C0.307942 19.0021 0.263205 18.9552 0.214844 18.9138Z" fill="#F1923F"/>
<path d="M1.59766 19.5889C1.77123 19.5894 1.93242 19.63 2.09644 19.6935C2.28361 19.7659 2.48995 19.7872 2.6829 19.847C2.81636 19.8883 2.9602 19.9011 3.08208 19.9781C2.57628 19.8902 2.08092 19.7626 1.59766 19.5889Z" fill="#F1923F"/>
<path d="M12.5996 20.9407C12.8564 20.9397 13.1133 20.9387 13.3701 20.9378C13.4073 20.9377 13.4459 20.9337 13.4736 20.9673C13.182 20.9688 12.8899 20.9846 12.5996 20.9407Z" fill="#F3A646"/>
<path d="M0.0234375 18.6299C0.0459846 18.5894 0.0884043 18.5771 0.125761 18.5576C0.0906282 18.6778 0.215505 18.7683 0.187054 18.8872C0.104263 18.8194 0.0310703 18.7455 0.0234375 18.6299Z" fill="#F1923F"/>
<path d="M10.8693 20.8414C11.0108 20.8209 11.1562 20.7461 11.2875 20.8709C11.2105 20.9031 11.1324 20.8917 11.0542 20.8768C10.9925 20.8747 10.9309 20.8726 10.8692 20.8705C10.8587 20.864 10.8552 20.8575 10.8587 20.8511C10.8622 20.8446 10.8657 20.8414 10.8693 20.8414Z" fill="#F1923F"/>
<path d="M8.7793 20.7411C8.85257 20.7169 8.92443 20.685 8.99961 20.6713C9.05289 20.6617 9.119 20.6616 9.13213 20.7425C9.06666 20.7722 9.00032 20.7656 8.9337 20.7472C8.88223 20.7452 8.83076 20.7431 8.7793 20.7411Z" fill="#F1923F"/>
<path d="M11.0547 20.8768C11.1325 20.8748 11.2103 20.8729 11.288 20.8709C11.3943 20.8891 11.5076 20.8404 11.6091 20.9046C11.4238 20.9048 11.2377 20.9208 11.0547 20.8768Z" fill="#F3A646"/>
<path d="M11.7324 20.9083C11.9164 20.9172 12.1029 20.8717 12.2843 20.9345C12.0999 20.9349 11.9148 20.951 11.7324 20.9083Z" fill="#F3A646"/>
<path d="M9.71094 20.7772C9.82883 20.7886 9.95635 20.6833 10.065 20.8064C9.99915 20.8371 9.93218 20.8292 9.86495 20.8121C9.81363 20.81 9.76231 20.8078 9.71099 20.8056C9.70054 20.7993 9.69705 20.793 9.70051 20.7867C9.70396 20.7804 9.70742 20.7772 9.71094 20.7772Z" fill="#F1923F"/>
<path d="M10.8695 20.8413C10.8696 20.851 10.8695 20.8608 10.8694 20.8705C10.7163 20.8739 10.5628 20.884 10.4121 20.8442C10.5646 20.8432 10.717 20.8423 10.8695 20.8413Z" fill="#F3A646"/>
<path d="M9.86523 20.812C9.93193 20.8102 9.99862 20.8083 10.0653 20.8064C10.15 20.8245 10.2434 20.7765 10.322 20.8404C10.1691 20.8411 10.0157 20.8512 9.86523 20.812Z" fill="#F3A646"/>
<path d="M3.08203 19.9755C3.19612 19.9686 3.30596 19.9823 3.40634 20.0422C3.29383 20.0415 3.18504 20.0225 3.08203 19.9755Z" fill="#F1923F"/>
<path d="M8.93359 20.7472C8.99974 20.7456 9.06588 20.744 9.13202 20.7424C9.17535 20.7499 9.22553 20.7298 9.25964 20.7742C9.15021 20.7742 9.03967 20.7876 8.93359 20.7472Z" fill="#F3A646"/>
<path d="M9.71172 20.7772C9.71188 20.7867 9.7119 20.7961 9.71178 20.8056C9.60128 20.8081 9.49019 20.8183 9.38281 20.7801C9.49242 20.7792 9.60207 20.7782 9.71172 20.7772Z" fill="#F3A646"/>
<path d="M25.6896 11.4843C25.7482 11.5355 25.8019 11.4822 25.8545 11.4717C26.0852 11.4258 26.1868 11.4898 26.2076 11.7173C26.2147 11.7954 26.2682 11.8107 26.3193 11.835C26.5211 11.9311 26.7236 12.0256 26.9259 12.1207C27.0439 12.2299 27.1412 12.3582 27.2535 12.4728C27.4615 12.6852 27.5965 12.9341 27.6451 13.2311C27.7255 13.7221 27.8556 14.2071 27.8349 14.7101C27.8198 15.0791 27.7713 15.4457 27.7335 15.8129C27.7302 15.8453 27.7196 15.8756 27.6958 15.8997C27.6385 15.9376 27.5726 15.94 27.5097 15.9304C27.1792 15.8801 26.8496 15.895 26.6839 15.9165C26.8619 15.8905 27.2038 15.888 27.5459 15.9363C27.6147 15.946 27.6874 15.9435 27.7235 16.0209C27.7438 16.1165 27.7523 16.2074 27.6326 16.2464C27.207 16.2553 26.7827 16.2017 26.357 16.2206C26.2278 16.2169 26.2011 16.1324 26.203 16.0256C26.2301 15.5981 26.353 15.1947 26.5335 14.8097C26.6965 14.4621 26.8666 14.117 27.0947 13.8049C26.9409 14.002 26.8222 14.2211 26.6956 14.4352C26.6686 14.4809 26.6462 14.5407 26.5845 14.5388C26.5196 14.5369 26.5069 14.4747 26.49 14.4237C26.4649 14.3476 26.4313 14.2743 26.4154 14.1896C26.4127 14.3159 26.5302 14.4162 26.475 14.546C26.4408 14.5714 26.4023 14.5746 26.362 14.5685C26.1806 14.4381 26.0511 14.2535 25.8997 14.126C26.0491 14.2788 26.227 14.438 26.3663 14.6328C26.3518 14.8054 26.2362 14.9235 26.1307 15.0406C25.9769 15.2113 25.8122 15.3722 25.6222 15.5056C25.2936 15.7363 25.0653 16.0649 24.7993 16.357C24.6489 16.5223 24.5245 16.7128 24.3384 16.8447C24.2185 16.8765 24.104 16.8335 23.9905 16.8114C23.4705 16.7098 22.9466 16.6245 22.4323 16.4991C21.4951 16.2707 20.6021 15.9338 19.8143 15.3565C19.5434 15.158 19.2882 14.9374 18.984 14.7835C18.8111 14.6961 18.6325 14.6258 18.4545 14.5532C18.2854 14.4843 18.1279 14.3923 17.9604 14.3207C17.8703 14.2821 17.8424 14.2179 17.8831 14.1263C18.049 13.753 18.2331 13.3913 18.5329 13.1028C18.6066 13.0318 18.6855 12.9693 18.7741 12.9197C18.6216 12.9945 18.4877 13.0922 18.3837 13.2305C18.1867 13.4926 18.019 13.7721 17.877 14.0673C17.8081 14.2104 17.7325 14.2543 17.5815 14.2088C17.4023 14.1547 17.218 14.1164 17.0435 14.0471C16.9879 14.0251 16.9091 14.0121 16.9505 13.9173C16.9538 13.871 16.9415 13.829 16.915 13.7911C16.9086 13.7275 16.936 13.6773 16.978 13.6329C17.8884 12.6718 18.9377 11.9509 20.2744 11.7263C20.3451 11.7207 20.4133 11.701 20.4832 11.6907C21.0487 11.6229 21.6159 11.5876 22.1854 11.592C22.2438 11.5925 22.3029 11.5906 22.3571 11.618C22.3881 11.6459 22.4311 11.6593 22.4501 11.703C22.6201 12.0936 22.9784 12.1853 23.3435 12.2336C24.1118 12.3353 24.8682 12.2059 25.6217 12.0722C25.7659 12.0466 25.9047 11.99 26.056 11.8862C25.7461 12.0807 25.4225 12.1164 25.1067 12.1564C24.6457 12.2146 24.1834 12.2825 23.7162 12.2638C23.4164 12.2518 23.1186 12.2263 22.8435 12.0822C22.6767 11.9949 22.5371 11.8856 22.4584 11.7112C22.4414 11.6736 22.416 11.6512 22.3806 11.6357C22.3436 11.5322 22.3931 11.4608 22.4758 11.4132C22.5749 11.3563 22.6677 11.3805 22.747 11.4603C22.7828 11.5247 22.8066 11.5975 22.8713 11.6427C22.9685 11.8243 23.1308 11.868 23.3238 11.8886C23.6764 11.9261 24.0263 11.881 24.3774 11.885C24.4536 11.8859 24.5241 11.8593 24.5974 11.8464C24.8764 11.8753 25.147 11.8086 25.4204 11.7741C25.5445 11.7585 25.6318 11.7094 25.6302 11.5653C25.6298 11.5307 25.6403 11.4895 25.6896 11.4843Z" fill="#FAB753"/>
<path d="M22.8071 7.13708C22.9327 7.14703 22.996 7.05533 23.0679 6.97746C23.0804 6.96726 23.0937 6.95745 23.109 6.95297C23.1751 6.93372 23.2464 6.9312 23.2793 6.99851C23.3175 7.07646 23.2451 7.11449 23.1922 7.14622C22.9856 7.27024 22.7927 7.41684 22.5813 7.53198C21.8816 7.91322 21.285 8.42351 20.7543 9.0095C20.4351 9.36183 20.1429 9.73894 19.8628 10.1243C19.7591 10.2671 19.6498 10.406 19.5378 10.5425C19.4799 10.6131 19.4279 10.6885 19.3851 10.7685C19.2417 11.0363 19.2905 11.2152 19.5481 11.3812C19.6607 11.4538 19.7805 11.5138 19.8972 11.5793C19.9459 11.6067 20.0153 11.6321 20.0049 11.7033C19.9959 11.7653 19.9274 11.7665 19.8796 11.7882C19.6658 11.8855 19.4314 11.9092 19.2117 12.0027C18.804 12.1763 18.4434 12.4263 18.0566 12.6321C17.9477 12.69 17.8559 12.7771 17.7695 12.8629C17.6234 13.0081 17.4532 13.1172 17.2823 13.2267C17.2004 13.2792 17.1298 13.3427 17.0609 13.4108C17.0067 13.4644 16.948 13.5354 16.8542 13.475C16.7588 12.9721 16.7646 12.464 16.7879 11.9566C16.8278 11.0858 16.9185 10.2189 16.9997 9.35128C17.0161 9.17563 17.0304 8.99964 17.0389 8.82348C17.042 8.75982 17.0482 8.7081 17.1175 8.6874C17.2151 8.62094 17.3191 8.60454 17.4307 8.64677C18.0064 8.58884 18.5712 8.46662 19.1377 8.35533C19.8159 8.22209 20.4827 8.04626 21.1168 7.76683C21.6011 7.55341 22.0837 7.33507 22.5478 7.07911C22.6416 7.06534 22.7217 7.11309 22.8071 7.13708Z" fill="#FDFDFE"/>
<path d="M15.8924 14.9801C15.666 14.9077 15.4397 14.8353 15.2133 14.7629C15.2181 14.7473 15.2467 14.7398 15.2444 14.7392C14.9424 14.6644 14.6578 14.5227 14.3418 14.5018C14.3731 14.2479 14.4063 13.9942 14.4345 13.7399C14.4424 13.6682 14.4836 13.6676 14.5349 13.6763C15.1935 13.7888 15.8666 13.7669 16.5243 13.8904C16.6563 13.9152 16.783 13.9534 16.9097 13.9944C17.5391 14.2008 18.1678 14.4089 18.7755 14.6746C18.8078 14.6887 18.855 14.704 18.8426 14.7506C18.8308 14.7953 18.7822 14.7929 18.7472 14.7864C18.4971 14.7395 18.2455 14.7811 17.9948 14.7718C17.84 14.7661 17.7083 14.6872 17.5634 14.6517C17.2587 14.5771 16.9622 14.4712 16.6524 14.4156C16.9488 14.4821 17.24 14.5678 17.5329 14.6473C17.5536 14.6529 17.5753 14.6556 17.5948 14.6642C17.6447 14.6863 17.7294 14.6824 17.7165 14.7617C17.7051 14.8309 17.6302 14.8314 17.5711 14.8346C17.1726 14.8563 16.7805 14.8206 16.3983 14.6974C16.4952 14.7199 16.5887 14.7529 16.6867 14.7712C16.8032 14.7929 16.8153 14.8412 16.7507 14.9378C16.6736 15.0532 16.5977 15.1108 16.4367 15.0582C16.2653 15.0022 16.0838 14.9325 15.8924 14.9801Z" fill="#FBBB8A"/>
<path d="M14.6949 6.56435C14.786 6.56164 14.8034 6.48506 14.8278 6.42298C14.8593 6.34286 14.9142 6.31527 14.9915 6.3357C15.1126 6.36769 15.2147 6.43921 15.3096 6.51642C15.3729 6.56785 15.332 6.63369 15.3063 6.69295C15.0781 7.21864 14.8809 7.75458 14.75 8.3141C14.6295 8.82934 14.5551 9.35104 14.5002 9.87671C14.4857 10.0152 14.4701 10.1526 14.4708 10.2918C14.5216 10.4585 14.4915 10.6294 14.4832 10.7963C14.473 11.0028 14.4585 11.2106 14.4241 11.4156C14.4137 11.4776 14.4143 11.547 14.3331 11.5667C14.1991 11.5486 14.1705 11.4441 14.1528 11.3372C14.1218 11.1498 14.1039 10.9606 14.0868 10.7715C14.0862 10.6974 14.0857 10.6233 14.0851 10.5492C14.0569 10.2465 14.0584 9.94232 14.0412 9.63899C14.0035 8.97342 13.8725 8.32739 13.666 7.69523C13.6576 7.66939 13.652 7.64392 13.6504 7.6174C13.6815 7.54108 13.7402 7.58137 13.7866 7.58921C14.2842 7.67323 14.5813 7.46923 14.6676 6.97545C14.6884 6.85617 14.7257 6.73569 14.6896 6.61202C14.6847 6.59537 14.6866 6.57947 14.6949 6.56435Z" fill="#9C3D3D"/>
<path d="M14.6985 6.58501C14.7564 6.59241 14.7637 6.63359 14.7572 6.67909C14.7318 6.85838 14.721 7.04096 14.6545 7.21194C14.5038 7.59942 14.1208 7.7472 13.6675 7.59472C13.6325 7.60536 13.6226 7.57599 13.6067 7.55633C13.424 7.05145 13.2413 6.54657 13.0586 6.04165C13.1664 5.80888 13.1645 5.55117 13.2258 5.30786C13.2934 5.31088 13.3032 5.3747 13.3335 5.41422C13.5249 5.6643 13.7077 5.92038 13.9333 6.14354C14.1195 6.32779 14.3198 6.47934 14.5824 6.53175C14.625 6.54026 14.6581 6.57098 14.6985 6.58501Z" fill="#FBBB8A"/>
<path d="M15.8926 14.9801C15.8967 14.9321 15.9052 14.9002 15.9708 14.9148C16.1421 14.9528 16.3199 14.9685 16.486 15.0216C16.5843 15.053 16.6322 15.0453 16.6781 14.9568C16.699 14.9165 16.7396 14.8865 16.7804 14.8418C16.596 14.7764 16.4055 14.7728 16.2595 14.6358C16.4944 14.6841 16.7275 14.7452 16.9646 14.777C17.2059 14.8093 17.451 14.8047 17.6962 14.7646C17.3157 14.6104 16.9167 14.5273 16.4933 14.41C16.5837 14.3554 16.6466 14.3719 16.71 14.3868C17.0677 14.4708 17.4217 14.5677 17.771 14.682C17.8886 14.7204 18.0104 14.7303 18.1342 14.7274C18.3612 14.7221 18.589 14.703 18.817 14.7484C18.382 14.5753 17.9662 14.3598 17.5126 14.2397C17.3019 14.1839 17.095 14.1151 16.91 13.9944C16.9237 13.9688 16.9375 13.9431 16.9513 13.9174C16.955 13.9329 16.9543 13.9588 16.9631 13.9626C17.2027 14.0665 17.4512 14.1416 17.7097 14.1807C17.7739 14.1904 17.7982 14.1477 17.823 14.0922C17.9676 13.7686 18.1503 13.467 18.3662 13.1857C18.4797 13.0378 18.6275 12.9348 18.7954 12.8579C18.8309 12.8417 18.87 12.8226 18.8915 12.8696C18.9091 12.908 18.8694 12.928 18.8436 12.9403C18.4152 13.1434 18.216 13.5411 18.0201 13.9324C17.8714 14.2293 17.8863 14.2393 18.1878 14.3809C18.3522 14.4582 18.5197 14.5292 18.6872 14.5998C18.9984 14.7309 19.2924 14.8929 19.5544 15.1059C20.2713 15.6886 21.0861 16.0747 21.9683 16.3321C22.7129 16.5492 23.4808 16.6552 24.2371 16.816C24.2732 16.8236 24.3119 16.8186 24.3494 16.8195C24.4105 16.7807 24.4738 16.8051 24.5365 16.8132C24.9552 16.8676 25.373 16.9276 25.7963 16.9408C25.908 16.9443 25.9641 16.9137 25.9894 16.804C26.0207 16.6687 26.0717 16.5384 26.1143 16.4061C26.1383 16.3313 26.1628 16.2461 26.2736 16.2628C26.3251 16.3145 26.2975 16.3735 26.286 16.4292C26.259 16.5605 26.2223 16.69 26.1717 16.8137C26.1257 16.9261 26.1385 16.9948 26.2696 17.0244C26.3643 17.0458 26.447 17.0986 26.5235 17.1588C26.5834 17.206 26.6322 17.2627 26.6609 17.3338C26.6786 17.3775 26.7064 17.4305 26.6555 17.4648C26.6041 17.4994 26.5621 17.4567 26.5334 17.4194C26.3436 17.1726 26.0796 17.126 25.7893 17.1195C25.2369 17.1072 24.6922 17.0178 24.1493 16.9224C24.033 16.902 23.9158 16.89 23.7995 16.8776C23.574 16.8535 23.364 16.7504 23.1433 16.7354C22.9042 16.7191 22.6839 16.6453 22.4557 16.5946C22.0214 16.498 21.6023 16.3531 21.1852 16.2007C20.5698 15.9758 20.0056 15.6558 19.5112 15.2316C19.0923 14.8722 18.6179 14.7936 18.101 14.8487C17.7391 14.8872 17.377 14.9165 17.0138 14.9361C16.93 14.9406 16.7867 14.9378 16.796 15.0158C16.808 15.1172 16.9369 15.0582 17.0133 15.0469C17.4612 14.9805 17.9114 15.013 18.3607 15.0095C18.3821 15.0093 18.3559 15.006 18.3766 15.0108C18.4459 15.0268 18.5577 15.0185 18.5481 15.1103C18.5393 15.1954 18.4329 15.1598 18.3683 15.1593C17.8434 15.1548 17.3186 15.1496 16.8009 15.2595C16.749 15.2706 16.6914 15.2805 16.6688 15.2084C16.41 15.1323 16.1513 15.0562 15.8926 14.9801Z" fill="#CF6134"/>
<path d="M14.0879 10.7715C14.1194 10.9505 14.1488 11.1299 14.1832 11.3084C14.2013 11.4018 14.2312 11.4917 14.3156 11.5503C14.4463 11.5831 14.4095 11.6819 14.4047 11.7706C14.3835 12.1553 14.3056 12.5358 14.3227 12.9231C14.3241 12.9548 14.3206 12.9867 14.3324 13.0406C14.4545 12.8944 14.5442 12.746 14.6093 12.5876C14.9596 11.7351 15.3399 10.8945 15.6378 10.0211C15.7174 9.78774 15.7763 9.54783 15.8545 9.31417C15.8925 9.20073 15.8723 9.1238 15.7756 9.05015C15.5924 8.91057 15.4092 8.77058 15.2319 8.62318C15.0591 8.47949 15.0573 8.42094 15.2307 8.27274C15.4139 8.11611 15.5902 7.9512 15.7751 7.79708C15.8896 7.70157 15.9268 7.59715 15.9035 7.45953C15.8598 7.20062 15.8356 6.93899 15.7957 6.67951C15.7812 6.58528 15.7583 6.48797 15.8223 6.4002C15.8554 6.3892 15.8886 6.37819 15.9217 6.36719C15.9341 6.75677 16.0117 7.1385 16.07 7.52197C16.0933 7.67515 16.0596 7.77476 15.9414 7.86834C15.745 8.02386 15.5595 8.19316 15.365 8.35126C15.2757 8.42382 15.2922 8.47563 15.3749 8.53455C15.575 8.67693 15.7699 8.82686 15.9742 8.96278C16.0712 9.02729 16.098 9.09331 16.0637 9.20393C15.7556 10.1981 15.4575 11.1954 15.1417 12.1871C15.0165 12.5802 14.8385 12.9531 14.5458 13.2567C14.4839 13.3208 14.4236 13.3972 14.314 13.3627C14.1943 13.325 14.2196 13.2257 14.2136 13.1368C14.1707 12.4978 14.1359 11.8585 14.1125 11.2184C14.1071 11.0702 14.0867 10.9212 14.0879 10.7715Z" fill="#3E3158"/>
<path d="M16.8555 13.4749C16.9144 13.4831 16.9606 13.4554 16.9994 13.4174C17.2958 13.1269 17.6449 12.8982 17.9738 12.6529C18.328 12.3886 18.7287 12.1754 19.1401 11.9886C19.4138 11.8643 19.7114 11.8352 19.9905 11.7031C19.8963 11.5892 19.758 11.5541 19.6424 11.4877C19.1228 11.1894 19.1939 10.939 19.4969 10.5306C19.7604 10.1756 20.0388 9.83168 20.3111 9.48324C20.9319 8.6889 21.6518 8.00741 22.5378 7.51142C22.7656 7.38393 22.9827 7.23736 23.204 7.09848C23.2343 7.07943 23.2776 7.05935 23.263 7.01505C23.2489 6.9721 23.2027 6.97854 23.1656 6.97762C23.1335 6.97682 23.1013 6.97745 23.0692 6.97746C23.0989 6.87865 23.131 6.78036 23.136 6.67607C23.1502 6.62554 23.1371 6.55165 23.2288 6.56725C23.5692 6.41246 23.9097 6.25767 24.2501 6.10288C24.3661 6.07507 24.4262 6.15155 24.4858 6.22903C24.4219 6.4004 24.2502 6.46342 24.1285 6.57543C23.9909 6.70209 23.8535 6.82536 23.7572 6.98782C23.7174 7.03833 23.6667 7.07378 23.6073 7.09734C23.3031 7.14843 23.0528 7.32484 22.7948 7.47121C22.4555 7.66371 22.1271 7.87748 21.8104 8.10836C21.2547 8.5134 20.8038 9.02004 20.3778 9.55209C20.0998 9.89926 19.8395 10.2601 19.5665 10.6112C19.5237 10.6662 19.485 10.7241 19.4511 10.7852C19.3074 11.0444 19.3334 11.1564 19.5848 11.3185C19.7422 11.4201 19.9036 11.5149 20.0758 11.5915C20.1534 11.626 20.254 11.6496 20.2622 11.7647C18.9601 12.0011 17.9227 12.6932 17.0341 13.6407C16.9906 13.6871 16.955 13.7408 16.9157 13.7911C16.8555 13.6934 16.8616 13.583 16.8555 13.4749Z" fill="#FDFDFD"/>
<path d="M12.4749 6.2399C12.5343 6.24911 12.5693 6.21084 12.6045 6.17322C12.5888 6.66014 12.6998 7.13768 12.7117 7.62372C12.7165 7.82046 12.8929 7.95803 13.032 8.08807C13.156 8.20399 13.2959 8.30895 13.453 8.37676C13.5771 8.43037 13.5221 8.47201 13.4571 8.51098C13.2922 8.60974 13.128 8.71201 12.9544 8.79312C12.8321 8.85024 12.8147 8.91724 12.8651 9.03081C13.023 9.38717 13.1792 9.74437 13.332 10.1029C13.5726 10.6671 13.8533 11.2163 13.9972 11.8175C14.0467 12.024 14.0801 12.2346 14.1143 12.4444C14.122 12.4914 14.1483 12.5691 14.0865 12.5859C14.0237 12.6029 14.0119 12.5218 13.9902 12.4776C13.8362 12.1632 13.7812 11.8179 13.6873 11.4848C13.532 10.9335 13.3113 10.4071 13.0927 9.87933C12.9599 9.55887 12.8383 9.23377 12.7065 8.91291C12.6645 8.81057 12.691 8.75394 12.791 8.71756C12.977 8.64996 13.1511 8.55752 13.3436 8.45227C13.2291 8.37321 13.1229 8.30792 13.0258 8.23124C12.7403 8.00602 12.5808 7.73172 12.561 7.34612C12.5464 7.05992 12.4559 6.77529 12.4754 6.48083C12.4807 6.40089 12.4754 6.32023 12.4749 6.2399Z" fill="#3E3258"/>
<path d="M13.3498 14.7014C13.1997 14.7218 13.0495 14.7423 12.8994 14.7627C12.5094 14.6512 12.1012 14.6424 11.7077 14.5411C10.9974 14.3582 10.3306 14.0815 9.70737 13.6968C9.64997 13.6613 9.60316 13.6197 9.62784 13.5293C10.1522 13.8481 10.7213 14.0542 11.3001 14.2333C11.9401 14.4313 12.5926 14.5566 13.2677 14.5387C13.379 14.5357 13.4172 14.5052 13.4141 14.3923C13.4051 14.0634 13.4783 13.7459 13.5757 13.4349C13.6137 13.3138 13.7019 13.2332 13.8731 13.224C13.6475 13.4271 13.6643 13.6911 13.6102 13.928C13.5675 14.1148 13.5592 14.3096 13.5742 14.502C13.5836 14.623 13.5509 14.6877 13.4175 14.6672C13.39 14.663 13.3654 14.6762 13.3498 14.7014Z" fill="#3E3158"/>
<path d="M10.0918 12.0728C10.273 11.9567 10.4735 11.891 10.6773 11.8351C10.8146 11.7976 10.9003 11.7356 10.9437 11.5788C11.1587 10.8032 11.2906 10.0091 11.4821 9.22861C11.5136 9.10053 11.5368 8.96514 11.6368 8.86477C11.6669 8.83448 11.7012 8.79578 11.7466 8.82664C11.7821 8.85072 11.7661 8.89291 11.7583 8.93033C11.7261 9.08355 11.6642 9.2247 11.5911 9.36206C11.3889 9.74192 11.3163 10.1534 11.2858 10.5776C11.2558 10.9968 11.2152 11.4154 11.172 11.8335C11.1644 11.9066 11.1813 11.9341 11.245 11.9668C11.9583 12.3325 12.6705 12.7004 13.3227 13.1717C13.3572 13.1966 13.3933 13.22 13.4249 13.2484C13.4601 13.2801 13.4909 13.3167 13.5118 13.3676C13.3161 13.2471 13.1227 13.1229 12.9245 13.0068C12.315 12.6501 11.689 12.3246 11.0452 12.0339C11.0257 12.0251 11.0001 12.0205 10.9883 12.0053C10.8512 11.8287 10.6949 11.9129 10.5396 11.9689C10.3954 12.0209 10.2513 12.0744 10.0918 12.0728Z" fill="#3E3259"/>
<path d="M17.4317 8.64669C17.3273 8.66023 17.2229 8.67377 17.1185 8.68732C17.0347 8.67336 17.0441 8.60879 17.0465 8.55063C17.0741 7.87147 17.0863 7.19207 17.0792 6.51234C17.0788 6.46657 17.0671 6.40821 17.1389 6.40212C17.207 6.39632 17.2267 6.44102 17.2413 6.49985C17.3068 6.76423 17.3421 7.03429 17.3633 7.30384C17.3983 7.75049 17.4101 8.19898 17.4317 8.64669Z" fill="#3F3259"/>
<path d="M20.274 5.96631C20.3478 6.07695 20.3285 6.15967 20.3248 6.23523C20.306 6.61561 20.249 6.98814 20.07 7.33175C20.0626 7.34599 20.0557 7.36056 20.0477 7.37446C20.0135 7.43386 19.9697 7.52753 19.9065 7.49939C19.8317 7.46605 19.8886 7.37553 19.9104 7.31436C20.063 6.88781 20.1909 6.45452 20.274 5.96631Z" fill="#3D3157"/>
<path d="M13.6055 7.55627C13.6258 7.56907 13.6461 7.58186 13.6664 7.59466C13.7816 7.93783 13.8777 8.28589 13.9598 8.63883C14.1066 9.2697 14.0934 9.90914 14.0851 10.5491C14.0174 10.366 14.0454 10.1713 14.0297 9.98357C13.9611 9.16078 13.8483 8.34773 13.6055 7.55627Z" fill="#672731"/>
<path d="M14.3407 14.5018C14.4689 14.4351 14.5918 14.4946 14.7099 14.5289C14.9128 14.5879 15.1105 14.6646 15.3151 14.7355C15.2826 14.7778 15.2431 14.7517 15.2122 14.7629C14.9022 14.7351 14.5989 14.6404 14.2832 14.67C14.3024 14.6139 14.3215 14.5578 14.3407 14.5018Z" fill="#F39461"/>
<path d="M22.8081 7.1371C22.7165 7.14107 22.6307 7.11878 22.5488 7.07914C22.5593 7.06742 22.5697 7.05571 22.5802 7.044C22.5904 7.04089 22.6007 7.03778 22.6109 7.03467C22.6895 7.04399 22.7472 7.09363 22.8081 7.1371Z" fill="#FDFDFD"/>
<path d="M16.6688 15.2084C16.7932 15.2648 16.9072 15.1876 17.0235 15.1717C17.5088 15.1049 17.9944 15.1089 18.4813 15.1294C18.5031 15.1303 18.5232 15.1323 18.5397 15.0998C18.4725 15.0527 18.3948 15.0543 18.3179 15.0529C17.8526 15.0444 17.3874 15.0285 16.9246 15.1053C16.851 15.1175 16.7224 15.158 16.7061 15.0441C16.6877 14.9159 16.8246 14.9076 16.9132 14.8963C17.0772 14.8753 17.2437 14.8651 17.4091 14.8661C17.7468 14.868 18.0769 14.7897 18.4153 14.7885C18.8422 14.7869 19.2004 14.9221 19.53 15.195C20.1184 15.682 20.7814 16.0417 21.5127 16.2721C21.9119 16.3978 22.3091 16.5271 22.7216 16.6081C23.1621 16.6946 23.6006 16.7885 24.0442 16.8614C24.5584 16.946 25.072 17.0278 25.5916 17.0674C25.7513 17.0795 25.9118 17.0829 26.0709 17.0996C26.2913 17.1229 26.4645 17.2281 26.5811 17.4203C26.5891 17.4335 26.6005 17.4461 26.6131 17.4547C26.6197 17.4592 26.6326 17.4543 26.6577 17.4527C26.6141 17.2432 26.465 17.1435 26.288 17.0748C26.0709 16.9905 26.0706 16.9936 26.1427 16.7709C26.1953 16.6085 26.2496 16.4463 26.2712 16.2757C26.3007 16.1689 26.4019 16.2295 26.462 16.1941C26.8417 16.1799 27.2187 16.2261 27.597 16.2426C27.6357 16.2443 27.6709 16.2534 27.6984 16.2825C27.7276 16.317 27.7388 16.3594 27.7369 16.4022C27.7187 16.8184 27.7276 17.2381 27.5666 17.6351C27.4014 18.0424 27.1175 18.2347 26.6787 18.2499C26.0095 18.2732 25.3544 18.1801 24.7043 18.034C24.2443 17.9306 23.7844 17.8284 23.3438 17.6547C23.2238 17.6073 23.1073 17.5545 22.9949 17.4916C22.5226 17.2271 22.0355 16.9944 21.5367 16.7831C21.1915 16.6368 20.847 16.4898 20.493 16.3662C20.1124 16.2332 19.7211 16.1533 19.3187 16.1248C18.6945 16.0807 18.07 16.0414 17.4443 16.0283C17.3621 16.0266 17.2901 15.983 17.2089 15.9818C17.1488 15.9346 17.203 15.825 17.108 15.7968C17.1299 15.7681 17.1602 15.7629 17.1938 15.765C17.5836 15.7895 17.9738 15.7666 18.2332 15.774C17.8836 15.7705 17.4031 15.7853 16.9234 15.7525C16.7673 15.704 16.8472 15.5687 16.8204 15.4727C16.8594 15.4175 16.922 15.4097 16.9786 15.4092C17.4386 15.4056 17.8985 15.3657 18.2227 15.3918C17.8324 15.3706 17.3069 15.3982 16.7814 15.423C16.7476 15.4245 16.7211 15.4432 16.6952 15.4624C16.5613 15.3908 16.6582 15.2951 16.6688 15.2084Z" fill="#FBBB89"/>
<path d="M17.209 15.9818C17.3012 15.9055 17.3929 15.9863 17.4841 15.9884C18.0178 16.0004 18.5518 16.0168 19.0842 16.0528C19.4017 16.0742 19.7182 16.114 20.0315 16.1863C20.5704 16.3107 21.0685 16.5384 21.5741 16.7503C22.0775 16.9614 22.5641 17.2043 23.0434 17.4655C23.507 17.7182 24.0201 17.8315 24.5309 17.9472C24.8892 18.0283 25.2485 18.105 25.6121 18.1556C26.0099 18.2109 26.4128 18.2323 26.8117 18.195C27.22 18.1568 27.4561 17.8935 27.5672 17.5094C27.6221 17.3193 27.6605 17.1273 27.6644 16.928C27.6685 16.7201 27.7107 16.5139 27.6952 16.3048C27.7267 16.2691 27.7696 16.2621 27.812 16.2678C28.2087 16.3213 28.5964 16.4052 28.9462 16.613C28.9786 16.6322 29.0074 16.6553 29.0252 16.6893C29.073 16.7784 28.9456 16.8656 29.022 16.9556C28.8817 17.112 28.7963 17.3026 28.6929 17.4819C28.3984 17.9928 28.0766 18.4861 27.7381 18.9688C27.7006 19.0222 27.661 19.0712 27.6034 19.1034C27.4714 19.2771 27.3389 19.4505 27.2076 19.6248C27.0739 19.8023 26.9477 19.8365 26.7675 19.7135C26.4789 19.5166 26.1657 19.3879 25.8229 19.3299C25.6262 19.2967 25.464 19.1937 25.3053 19.0839C24.7837 18.7234 24.234 18.4157 23.6483 18.1704C23.3143 18.0306 22.9577 18.0393 22.6111 17.9816C22.3775 17.8754 22.189 17.7014 21.9797 17.5589C21.208 17.0335 20.3508 16.7548 19.4317 16.6237C18.7851 16.5315 18.1509 16.3702 17.534 16.1502C17.4187 16.1091 17.3006 16.07 17.209 15.9818Z" fill="#F9A06D"/>
<path d="M15.2411 18.27C15.4894 18.4322 15.7811 18.5114 16.0258 18.6805C15.8755 18.9172 15.6568 18.8793 15.4338 18.829C15.0241 18.7367 14.6121 18.7258 14.1947 18.7759C14.0531 18.7928 13.9087 18.7987 13.7659 18.8143C13.892 18.7116 14.0505 18.7523 14.1923 18.719C14.2571 18.7038 14.334 18.7444 14.3881 18.6796C14.4034 18.6611 14.3978 18.6366 14.3757 18.6254C14.2845 18.5792 14.2503 18.4429 14.1144 18.4662C13.8375 18.5138 13.5624 18.5224 13.2884 18.4379C13.202 18.4113 13.1088 18.4218 13.0209 18.4572C12.8609 18.5215 12.6885 18.5277 12.521 18.5555C12.3397 18.5857 12.1918 18.434 12.0086 18.4525C11.9628 18.4571 11.9719 18.3966 11.9582 18.3639C11.9327 18.3028 11.8775 18.2732 11.818 18.2746C11.7487 18.2762 11.7608 18.3364 11.7444 18.388C11.7047 18.5122 11.578 18.5417 11.4667 18.5541C11.0255 18.6034 10.5885 18.5298 10.1508 18.4909C10.0101 18.4784 9.91504 18.2843 9.97095 18.1535C10.0458 17.9782 9.95488 17.8087 9.76913 17.7869C9.64517 17.7724 9.52346 17.7689 9.56328 17.5856C9.57327 17.5396 9.52272 17.531 9.48438 17.5265C9.49178 17.4504 9.56011 17.4639 9.60421 17.4522C9.73638 17.4172 9.86893 17.3838 9.99967 17.3436C11.5272 17.6002 13.0565 17.8448 14.5926 18.0447C14.8267 18.0752 15.0191 18.2121 15.2411 18.27Z" fill="#F3A646"/>
<path d="M13.5718 14.8706C13.5571 14.9084 13.4533 14.916 13.4963 14.9586C13.5433 15.0053 13.5876 15.071 13.6702 15.0848C13.8036 15.107 13.9422 15.1109 14.0706 15.1685C14.0463 15.2326 13.9966 15.2068 13.959 15.2114C13.7572 15.2359 13.5564 15.1103 13.3539 15.207C13.2288 15.0966 13.0389 15.1759 12.9023 15.0368C13.1205 14.9443 13.3011 14.7509 13.5718 14.8706Z" fill="#EFF0F7"/>
<path d="M16.6953 15.4624C16.6956 15.3904 16.7423 15.3728 16.8022 15.3731C17.3638 15.3761 17.9253 15.3044 18.487 15.3697C18.5176 15.3733 18.5529 15.3697 18.5726 15.4344C17.9845 15.4615 17.4001 15.3989 16.8206 15.4727C16.7788 15.4693 16.7371 15.4659 16.6953 15.4624Z" fill="#CB5A3D"/>
<path d="M16.9219 15.7526C17.0106 15.6938 17.1096 15.7285 17.2021 15.729C17.624 15.7311 18.0469 15.6941 18.4676 15.7539C18.4936 15.7576 18.5211 15.757 18.5623 15.8242C18.0608 15.815 17.584 15.8452 17.1065 15.7969C17.045 15.7821 16.9834 15.7673 16.9219 15.7526Z" fill="#D06142"/>
<path d="M9.99927 17.3436C9.90604 17.4389 9.77163 17.4161 9.66022 17.4604C9.6022 17.4835 9.5355 17.4844 9.484 17.5265C9.15624 17.6058 8.82821 17.684 8.50105 17.7657C8.44891 17.7787 8.40049 17.7939 8.3418 17.7683C8.38815 17.6747 8.4982 17.7159 8.5545 17.657C8.95289 17.5692 9.35156 17.4826 9.74925 17.3917C9.79291 17.3817 9.84567 17.3767 9.87522 17.3312C9.91658 17.3353 9.95793 17.3395 9.99927 17.3436Z" fill="#D7712E"/>
<path d="M29.0193 16.9528C28.9806 16.9431 28.9127 16.9616 28.9515 16.8787C28.9754 16.8275 28.9944 16.774 29.0157 16.7215C29.0799 16.6379 29.0276 16.6015 28.9572 16.5646C28.7169 16.4387 28.4536 16.3905 28.1921 16.3394C28.0313 16.308 27.8708 16.27 27.7049 16.2687C27.673 16.2685 27.6249 16.2679 27.6275 16.2111C27.7458 16.1784 27.6729 16.0794 27.6959 16.0137C27.7669 15.9529 27.8479 15.9761 27.9257 15.9897C28.4595 16.0831 28.9833 16.2108 29.4752 16.4459C28.9591 16.1974 28.4149 16.044 27.8485 15.9639C27.7913 15.9558 27.7145 15.9788 27.6948 15.8895C27.711 15.5658 27.7463 15.2442 27.7824 14.9221C27.8219 14.5706 27.7802 14.2202 27.7153 13.8732C27.6763 13.6645 27.6297 13.4569 27.6009 13.2468C27.56 12.9479 27.4187 12.7063 27.2131 12.4938C27.1132 12.3904 27.0201 12.2804 26.924 12.1734C26.9076 12.1552 26.9027 12.1373 26.9262 12.1207C27.5284 12.3187 28.1039 12.571 28.6202 12.9458C28.697 13.0016 28.7419 13.0964 28.841 13.1241C28.9585 13.1563 29.0187 13.2539 29.0893 13.3404C29.5039 13.8483 29.6509 14.4569 29.7462 15.0848C29.7527 15.1276 29.7397 15.1692 29.7265 15.2099C29.737 15.3502 29.7476 15.4905 29.7581 15.6308C29.8033 15.6812 29.823 15.7434 29.8254 15.8079C29.8358 16.0966 29.8568 16.3861 29.7999 16.6728C29.7662 16.8422 29.7054 16.9107 29.537 16.9277C29.3655 16.945 29.1956 17.0284 29.0193 16.9528Z" fill="#F39F44"/>
<path d="M29.7272 15.2098C29.6689 14.8231 29.5945 14.4408 29.4593 14.0715C29.326 13.7071 29.1112 13.3985 28.8418 13.1241C29.0553 13.1317 29.2583 13.1928 29.4597 13.2549C29.6162 13.3032 29.7348 13.2847 29.8308 13.1381C29.881 13.0616 29.9389 12.978 30.0441 12.9598C30.4175 12.9194 30.7904 12.8742 31.1643 12.84C31.5404 12.8055 31.9176 12.7875 32.2956 12.7997C32.2932 12.9406 32.1961 13.0312 32.1158 13.1284C31.9399 13.3413 31.7677 13.5564 31.4988 13.668C31.3383 13.7346 31.2253 13.8724 31.1143 14.0007C30.8172 14.3438 30.4982 14.6622 30.1401 14.9426C30.0094 15.0449 29.8416 15.0855 29.7272 15.2098Z" fill="#F0F1F7"/>
<path d="M29.02 16.9529C29.2002 16.9298 29.3803 16.9061 29.5606 16.8838C29.6792 16.8692 29.7395 16.8023 29.7534 16.6847C29.7914 16.3654 29.8057 16.0463 29.7568 15.7266C29.7521 15.6955 29.7579 15.6628 29.7588 15.6308C29.9427 15.6064 30.1003 15.5112 30.2648 15.4371C30.6059 15.2835 30.9441 15.1233 31.2811 14.9608C31.3867 14.9099 31.4056 14.9561 31.3932 15.0446C31.3711 15.203 31.2942 15.3384 31.1943 15.4583C30.6238 16.1434 30.0341 16.81 29.4095 17.4478C28.8673 18.0015 28.2721 18.4975 27.7318 19.0517C27.6957 19.0888 27.6557 19.1095 27.6035 19.1034C28.0096 18.5007 28.4186 17.9001 28.7732 17.2645C28.8374 17.1494 28.855 16.9906 29.02 16.9529Z" fill="#F0F1F7"/>
<path d="M5.91602 18.6216C6.15688 18.5531 6.4052 18.5761 6.64462 18.6013C6.8781 18.6258 7.11206 18.6203 7.3457 18.6475C7.81019 18.7017 8.27619 18.7433 8.74009 18.8055C8.99831 18.8401 9.25912 18.8553 9.51877 18.8793C9.32214 18.9093 9.12312 19.0263 8.93165 18.8629C8.92404 18.8564 8.91064 18.8498 8.9023 18.8521C8.62362 18.9268 8.34647 18.7537 8.06755 18.8473C8.02434 18.8617 7.86668 19.1119 7.894 19.1407C7.96249 19.213 8.0504 19.258 8.15252 19.22C8.21005 19.1986 8.27639 19.1826 8.31124 19.1216C8.30466 19.1107 8.30086 19.1001 8.29364 19.093C8.25129 19.0517 8.13585 19.0751 8.15765 18.9911C8.17874 18.9099 8.28064 18.9362 8.34248 18.9473C8.44308 18.9654 8.57796 18.941 8.59788 19.1053C8.6027 19.145 8.66476 19.1764 8.70223 19.161C8.80921 19.1171 8.89852 19.1722 8.99645 19.1892C9.09152 19.2056 9.20885 19.2537 9.2483 19.0877C9.26447 19.0196 9.72857 19.0575 9.76451 19.1251C9.76938 19.1342 9.7746 19.146 9.77295 19.1554C9.74228 19.3302 9.82729 19.4162 9.98735 19.4667C10.0518 19.487 10.1201 19.5485 10.0144 19.6248C9.96567 19.66 9.94508 19.7401 10.007 19.7556C10.189 19.8011 10.261 19.9605 10.3743 20.0757C10.4224 20.1247 10.5412 20.1378 10.5053 20.2336C10.4695 20.3293 10.3806 20.3867 10.2785 20.4219C10.0658 20.4951 9.86267 20.5016 9.66857 20.3694C9.60686 20.3274 9.55071 20.3224 9.47966 20.3728C9.20378 20.5688 8.91595 20.5579 8.62911 20.3947C8.48802 20.3145 8.34907 20.2867 8.18807 20.3419C8.10578 20.3701 8.0084 20.3543 7.91785 20.3586C7.83966 20.3623 7.76134 20.3459 7.69015 20.4077C7.6517 20.4411 7.58685 20.4311 7.53604 20.4085C7.3003 20.3034 7.04765 20.2492 6.80538 20.1639C6.71496 20.132 6.67728 20.043 6.60898 19.9868C6.58269 19.9652 6.62011 19.9307 6.64815 19.9132C6.69505 19.884 6.7462 19.8741 6.80146 19.8756C7.08004 19.8832 7.30416 19.5136 7.26016 19.2936C7.25087 19.2472 7.21807 19.2001 7.26738 19.1614C7.31955 19.1205 7.37903 19.1295 7.43386 19.1573C7.4813 19.1813 7.52249 19.2252 7.57182 19.2362C7.63809 19.251 7.67254 19.3762 7.71433 19.3273C7.76203 19.2715 7.85387 19.1988 7.82688 19.1154C7.79929 19.0302 7.78658 18.9093 7.64272 18.9062C7.58837 18.905 7.52318 18.8761 7.48329 18.8383C7.3757 18.7364 7.22321 18.863 7.1861 18.8264C7.10667 18.748 7.05935 18.6693 6.92677 18.6832C6.69307 18.7079 6.45902 18.6356 6.22006 18.6983C6.13154 18.7216 6.0181 18.6499 5.91602 18.6216Z" fill="#F1923F"/>
<path d="M2.76412 18.5251C2.97866 18.5627 3.19379 18.5972 3.40759 18.6385C3.92271 18.7382 4.4381 18.7801 4.96088 18.6928C5.19118 18.6544 5.42629 18.6447 5.65921 18.6219C5.60379 18.7035 5.51868 18.7391 5.42795 18.7476C5.29787 18.7599 5.2538 18.8437 5.24373 18.9517C5.23234 19.0738 5.32331 19.1004 5.41973 19.1143C5.46695 19.1211 5.5149 19.1386 5.56101 19.1344C5.69618 19.1223 5.78037 19.1664 5.78811 19.3125C5.78986 19.3456 5.79448 19.3761 5.83142 19.3903C5.89082 19.4131 5.98177 19.4396 5.93834 19.5147C5.89143 19.5958 5.87811 19.7266 5.76427 19.743C5.54023 19.7753 5.33441 19.86 5.12292 19.9305C5.02796 19.9622 4.76292 19.8133 4.74071 19.7234C4.7297 19.6789 4.76908 19.6569 4.79464 19.6318C4.95715 19.4722 4.96543 19.2722 4.92821 19.0694C4.91533 18.9992 4.91476 18.9822 4.98639 18.9657C5.03994 18.9534 5.10561 18.9079 5.09112 18.8445C5.07835 18.7887 5.00778 18.8211 4.96299 18.8151C4.80158 18.7934 4.64562 18.8568 4.48469 18.8475C4.45862 18.846 4.42046 18.8495 4.43033 18.8852C4.46708 19.0181 4.39637 19.0716 4.28395 19.1014C4.25788 19.1083 4.22995 19.1265 4.23328 19.1558C4.23652 19.1842 4.26575 19.1938 4.29374 19.1992C4.34587 19.2091 4.39794 19.2199 4.44932 19.2331C4.49647 19.2453 4.51061 19.2797 4.48513 19.3185C4.45479 19.3646 4.44391 19.4131 4.43271 19.4664C4.41285 19.5609 4.34861 19.5975 4.25293 19.5583C3.97467 19.4445 3.71429 19.4594 3.47436 19.6577C3.41643 19.7056 3.33053 19.7024 3.27422 19.6723C3.0843 19.5709 2.86443 19.5746 2.6727 19.4865C2.59125 19.449 2.52113 19.4612 2.44553 19.5058C2.28223 19.6019 2.14309 19.5481 2.09105 19.3669C2.07151 19.2989 2.05658 19.2689 1.97295 19.2849C1.85044 19.3084 1.78995 19.1692 1.66555 19.1464C1.5779 19.1304 1.48869 19.0373 1.37878 19.0127C1.33034 19.0018 1.29496 18.7428 1.33717 18.6937C1.37577 18.6488 1.4 18.5992 1.43 18.551C1.4681 18.4898 1.5356 18.4682 1.57056 18.5657C1.58372 18.6024 1.59746 18.6512 1.63029 18.6556C1.78736 18.6766 1.87495 18.8048 1.994 18.8825C2.18288 19.0059 2.39483 18.9408 2.59424 18.9732C2.67871 18.9869 2.75359 18.9799 2.80921 19.0749C2.87754 19.1917 2.99391 19.1079 3.08879 19.1014C3.1858 19.0948 3.12397 19.0154 3.13082 18.9748C3.16341 18.7814 3.12593 18.7298 2.94591 18.6843C2.86513 18.6639 2.79856 18.6055 2.76412 18.5251Z" fill="#F1923F"/>
<path d="M10.8555 19.571C10.9724 19.5091 11.0478 19.4788 11.146 19.51C11.2935 19.5569 11.4394 19.4827 11.5897 19.486C11.8604 19.4919 12.1347 19.5201 12.4007 19.4349C12.4481 19.4197 12.488 19.4371 12.5019 19.4863C12.518 19.5435 12.4689 19.557 12.4312 19.5755C12.4218 19.5801 12.4103 19.5849 12.4005 19.5837C12.0877 19.5438 11.7843 19.6967 11.4679 19.6257C11.3713 19.604 11.26 19.6021 11.1655 19.628C11.0573 19.6577 10.9814 19.6134 10.8555 19.571Z" fill="#F1923F"/>
<path d="M12.1562 18.9752C12.2823 18.9283 12.4025 18.8896 12.5471 18.8921C12.7796 18.896 13.013 18.8471 13.246 18.8205C13.2929 18.8152 13.3416 18.8011 13.3785 18.8466C13.1598 18.9102 12.9317 18.913 12.7082 18.9371C12.526 18.9569 12.3423 18.9966 12.1562 18.9752Z" fill="#F3A646"/>
<path d="M10.9336 18.9752C10.9751 18.9266 11.0317 18.9442 11.0826 18.9439C11.3264 18.9423 11.5701 18.9423 11.8139 18.9439C11.8648 18.9442 11.9214 18.9266 11.9629 18.9752C11.6198 19.0327 11.2767 19.01 10.9336 18.9752Z" fill="#F3A646"/>
<path d="M4.49902 19.7647C4.47227 19.8473 4.4041 19.8774 4.32585 19.8713C4.25792 19.866 4.19369 19.8129 4.19534 19.7508C4.19742 19.6732 4.26976 19.6567 4.34046 19.6792C4.39711 19.6973 4.49213 19.6441 4.49902 19.7647Z" fill="#F1923F"/>
<path d="M0.929688 18.2681C1.10083 18.2845 1.27623 18.232 1.44421 18.2998C1.26736 18.3758 1.09508 18.3777 0.929688 18.2681Z" fill="#F1923F"/>
<path d="M9.55078 18.8788C9.66627 18.8363 10.0617 18.8779 10.1619 18.943C9.95749 18.9282 9.74921 18.9504 9.55078 18.8788Z" fill="#F3A646"/>
<path d="M11.6633 19.3295C11.6136 19.3257 11.5545 19.324 11.561 19.259C11.5672 19.1984 11.6262 19.1984 11.674 19.2024C11.7208 19.2064 11.7849 19.2138 11.7844 19.2679C11.7838 19.3425 11.7111 19.3235 11.6633 19.3295Z" fill="#F1923F"/>
<path d="M10.3223 18.9432C10.4361 18.8868 10.5443 18.8878 10.6438 18.9752C10.5364 18.9665 10.4249 18.9998 10.3223 18.9432Z" fill="#F3A646"/>
<path d="M13.4434 18.8465C13.5068 18.7549 13.5844 18.7622 13.6684 18.8144C13.5982 18.859 13.5196 18.8445 13.4434 18.8465Z" fill="#F3A646"/>
<path d="M24.4739 6.24635C24.4024 6.19354 24.3353 6.13372 24.2496 6.10288C24.1398 5.9911 24.0223 5.88103 24.0936 5.70064C24.1616 5.52892 24.2835 5.47918 24.4527 5.55046C24.4969 5.56907 24.5397 5.5909 24.5853 5.61222C24.6326 5.57199 24.6099 5.51177 24.6329 5.46599C24.6562 5.41978 24.7125 5.35966 24.7319 5.37593C24.926 5.53822 25.0222 5.16989 25.1994 5.29461C25.2417 5.32435 25.276 5.36939 25.3048 5.4134C25.3461 5.47664 25.365 5.51189 25.4385 5.42925C25.5793 5.27098 25.6648 5.2901 25.7928 5.45442C26.045 5.77819 26.3664 6.02779 26.6942 6.26905C26.7527 6.31214 26.8208 6.33002 26.8909 6.29798C26.937 6.27686 26.9467 6.23572 26.9455 6.09828C27.2578 6.23935 27.5671 6.36782 27.8545 6.54163C27.9229 6.58299 27.9872 6.64678 28.0077 6.72292C28.0538 6.89491 28.1283 7.04215 28.2811 7.14166C28.3496 7.2421 28.3608 7.35251 28.3076 7.45783C28.2711 7.53006 28.3002 7.5409 28.3567 7.56896C28.6523 7.71579 28.7197 7.90797 28.573 8.20494C28.5406 8.27055 28.579 8.27261 28.6103 8.29538C28.7087 8.3671 28.7238 8.45504 28.6647 8.56088C28.5146 8.82971 28.3363 9.07468 28.0766 9.24864C27.9712 9.31925 27.9198 9.40251 27.9186 9.53819C27.916 9.84157 27.7428 9.96425 27.4536 9.87906C27.3448 9.84701 27.3116 9.85326 27.338 9.98104C27.3819 10.1935 27.3413 10.2324 27.1283 10.2601C26.8968 10.2903 26.6595 10.2919 26.4397 10.3867C26.2495 10.4429 26.105 10.5638 25.9794 10.7115C25.9078 10.6786 25.938 10.62 25.9528 10.575C26.0296 10.3423 26.0709 10.1023 26.103 9.86085C26.1161 9.76173 26.1626 9.7068 26.2574 9.68784C26.588 9.66464 26.8216 9.50844 26.9377 9.19111C26.9998 9.02132 26.9561 8.91746 26.7902 8.84153C26.5676 8.73964 26.3189 8.78896 26.1399 8.95818C25.9528 9.13505 25.8796 9.37138 25.7864 9.59835C25.3228 10.604 24.4151 10.8281 23.4504 10.6829C23.1541 10.602 22.8756 10.4812 22.6279 10.298C22.3483 10.0913 22.2538 9.8188 22.343 9.4796C22.4012 9.2582 22.5163 9.06593 22.6375 8.87747C22.7231 8.74429 22.7707 8.58518 22.9004 8.4813C22.996 8.52143 22.9397 8.58772 22.9225 8.64039C22.8791 8.77349 22.8359 8.90601 22.8514 9.04844C22.8716 9.23357 22.944 9.26817 23.1045 9.17113C23.1503 9.14339 23.1952 9.11374 23.2451 9.09374C23.4298 9.01972 23.5603 9.11445 23.5283 9.30843C23.5126 9.40399 23.5443 9.45055 23.6309 9.43983C23.9272 9.40316 24.2135 9.45915 24.5041 9.50387C24.8443 9.55623 25.1219 9.41852 25.3401 9.15678C25.4842 8.98386 25.6228 8.80724 25.7369 8.61208C25.823 8.46481 25.8467 8.30049 25.881 8.1382C25.914 7.98143 25.9772 7.84616 26.128 7.76227C26.3427 7.64278 26.3751 7.44737 26.2112 7.259C26.1313 7.16723 26.0195 7.10477 25.973 6.9818C25.9568 6.93878 25.9101 6.95856 25.8728 6.96314C25.6879 6.98585 25.608 6.93888 25.5674 6.76754C25.5499 6.6935 25.5253 6.66531 25.4494 6.68463C25.3847 6.70107 25.3081 6.69994 25.267 6.65061C25.1757 6.54131 25.0916 6.58617 24.9881 6.62676C24.7141 6.7342 24.5573 6.63995 24.5086 6.3527C24.5024 6.31554 24.4914 6.27984 24.4739 6.24635Z" fill="#492A36"/>
<path d="M13.2484 4.7565C13.1908 4.58368 13.2045 4.3982 13.1614 4.21976C12.9605 4.33595 12.813 4.31144 12.6808 4.12662C12.5091 3.88657 12.464 3.61787 12.5446 3.33314C12.574 3.2295 12.6382 3.1541 12.7587 3.14697C12.8827 3.13963 12.9407 3.20692 12.977 3.31658C13.0193 3.44449 13.1007 3.54749 13.2266 3.64669C13.1974 3.49964 13.1379 3.38294 13.1618 3.24997C13.1748 3.17752 13.1866 3.1329 13.2721 3.12685C13.4938 3.11116 13.6814 3.00891 13.8532 2.87603C14.2577 2.56322 14.5817 2.1856 14.7786 1.69958C15.1874 1.96837 15.6066 2.20739 15.9701 2.527C16.0343 2.58348 16.0957 2.64383 16.1536 2.7068C16.3516 2.92218 16.3605 2.9713 16.265 3.27539C16.1211 3.18792 15.9654 3.13777 15.7992 3.12389C15.7531 3.12004 15.6851 3.10631 15.6733 3.1626C15.6601 3.22554 15.7324 3.22776 15.7751 3.23876C15.9149 3.27481 16.0554 3.30963 16.1972 3.33673C16.2552 3.34783 16.2816 3.36182 16.2694 3.42672C16.1912 3.84218 16.1911 4.26895 16.0842 4.68061C15.9696 5.12188 15.7408 5.4855 15.368 5.75229C15.208 5.86687 15.034 5.94492 14.8286 5.9172C14.7924 5.91233 14.7528 5.90746 14.7257 5.94388C14.4525 5.89273 14.2138 5.7618 13.9939 5.6021C13.6841 5.37703 13.4217 5.1046 13.2484 4.7565Z" fill="#FBBC8C"/>
<path d="M15.8228 6.40023C15.8266 6.73684 15.897 7.06581 15.9394 7.39791C15.9608 7.56591 15.9796 7.70877 15.8032 7.83093C15.5941 7.97567 15.4178 8.16705 15.2233 8.33355C15.1202 8.42177 15.0962 8.47821 15.2325 8.57082C15.4524 8.72012 15.6534 8.89703 15.8637 9.0605C15.9299 9.11192 15.9471 9.16323 15.9228 9.2513C15.6366 10.2888 15.2047 11.2711 14.7936 12.2616C14.6869 12.5187 14.5797 12.7738 14.4216 13.0047C14.3884 13.0532 14.3577 13.101 14.2863 13.1431C14.2863 12.9113 14.2626 12.6925 14.2923 12.4812C14.3295 12.2173 14.3245 11.9498 14.3757 11.6882C14.3873 11.6289 14.3617 11.5851 14.3161 11.5503C14.4342 11.4373 14.3799 11.2839 14.4058 11.1501C14.4605 10.8673 14.419 10.5757 14.4726 10.2918C14.5369 10.0882 14.5398 9.87429 14.5638 9.66547C14.6683 8.7543 14.8659 7.86881 15.2375 7.02656C15.2892 6.90936 15.3439 6.79222 15.3811 6.67017C15.45 6.44463 15.6144 6.38989 15.8228 6.40023Z" fill="#52537E"/>
<path d="M13.2473 4.75659C13.3931 4.88383 13.4741 5.06239 13.6054 5.20302C13.8678 5.48387 14.1638 5.71137 14.5264 5.84367C14.5978 5.86969 14.6633 5.90104 14.7246 5.94401C14.6866 6.14944 14.6081 6.35294 14.6949 6.56439C14.6955 6.57133 14.6964 6.57822 14.6973 6.58506C14.4687 6.5828 14.2686 6.49056 14.1005 6.35105C13.7469 6.05745 13.4685 5.69607 13.2246 5.30788C13.2322 5.12411 13.2397 4.94035 13.2473 4.75659Z" fill="#F68F56"/>
<path d="M23.4539 10.6498C23.8764 10.7123 24.2946 10.6962 24.7026 10.5645C25.2078 10.4014 25.529 10.0377 25.7554 9.57544C25.9265 9.63946 26.1139 9.64373 26.2821 9.71835C26.1852 9.72755 26.145 9.76965 26.1396 9.87785C26.1281 10.1057 26.0768 10.3287 26.0047 10.5464C25.9874 10.5985 25.9432 10.6498 25.9791 10.7115C25.8353 10.9514 25.753 11.2143 25.6894 11.4843C25.6823 11.5038 25.6659 11.5251 25.6695 11.5424C25.71 11.7408 25.5954 11.8068 25.4288 11.822C25.203 11.8427 24.9821 11.9067 24.7533 11.8985C24.7021 11.8966 24.6455 11.9152 24.6039 11.8666C24.5572 11.785 24.6159 11.723 24.6467 11.659C24.7487 11.447 24.8605 11.2395 24.9188 11.0094C24.9401 10.9255 24.9625 10.8373 24.8851 10.7703C24.8103 10.7055 24.7317 10.7516 24.6591 10.7809C24.3468 10.907 24.0237 10.9724 23.6873 10.9411C23.5784 10.931 23.4433 10.957 23.3852 10.8143C23.3817 10.7485 23.3974 10.6906 23.4539 10.6498Z" fill="#F68F58"/>
<path d="M28.315 7.09105C28.1357 6.54106 27.7031 6.229 27.2461 5.93945C27.6733 6.0234 28.2714 6.6658 28.315 7.09105Z" fill="#A15333"/>
<path d="M23.2279 6.56718C23.1771 6.58679 23.1556 6.63122 23.135 6.6762C23.133 6.47538 23.1309 6.27475 23.1289 6.0741C23.2388 6.22301 23.2162 6.39854 23.2279 6.56718Z" fill="#DE926A"/>
<path d="M23.4545 10.6499C23.4414 10.7016 23.4283 10.7534 23.4152 10.8051C23.3909 10.8314 23.4065 10.8763 23.372 10.8979C23.344 10.9174 23.311 10.9236 23.2798 10.9164C22.8825 10.8253 22.5021 10.938 22.122 11.0205C21.5797 11.1382 21.0336 11.1893 20.4794 11.1741C20.2295 11.1673 19.979 11.1691 19.69 11.1769C19.8106 11.2804 19.923 11.3266 20.0248 11.3875C20.135 11.4535 20.2491 11.5133 20.3551 11.586C20.4065 11.6213 20.4674 11.6551 20.456 11.7351C20.3927 11.7539 20.3293 11.7728 20.2619 11.7647C20.0798 11.5843 19.823 11.5332 19.6178 11.3882C19.2483 11.127 19.2311 11.0527 19.4647 10.694C19.665 10.3863 19.8967 10.0984 20.1236 9.80892C20.4397 9.40575 20.7577 9.00342 21.1238 8.64319C21.5177 8.2556 21.9644 7.93784 22.4311 7.64335C22.7167 7.4631 23.0187 7.31454 23.3097 7.14516C23.3982 7.09364 23.4963 7.0648 23.6016 7.07323C23.6299 7.10992 23.6465 7.1525 23.6631 7.19533C23.6596 7.29452 23.6409 7.39046 23.6044 7.48283C23.5953 7.50399 23.5837 7.52389 23.572 7.54366C23.5347 7.62775 23.4731 7.69334 23.4142 7.76248C23.2722 7.92894 23.1475 8.10778 23.0514 8.3057C23.0172 8.37613 22.993 8.45748 22.9055 8.486C22.783 8.69838 22.6597 8.91032 22.5382 9.1233C22.4638 9.25366 22.4088 9.39195 22.37 9.53736C22.3065 9.77529 22.3602 9.97995 22.533 10.1551C22.7571 10.3823 23.0387 10.5069 23.3338 10.6081C23.3741 10.6219 23.4143 10.6359 23.4545 10.6499Z" fill="#F0F1F7"/>
<path d="M26.4418 16.214C26.3958 16.2643 26.3133 16.2137 26.2715 16.2757C26.1831 16.2759 26.1745 16.3502 26.1563 16.4079C26.1049 16.5706 26.0568 16.7345 26.0126 16.8992C25.989 16.9871 25.9527 16.9964 25.8562 16.993C25.4716 16.9796 25.0917 16.9279 24.7107 16.8838C24.5895 16.8697 24.4699 16.8414 24.3496 16.8196C24.6401 16.4811 24.9231 16.1357 25.2235 15.8062C25.4852 15.5191 25.8357 15.3277 26.0912 15.031C26.1954 14.91 26.2981 14.7885 26.3449 14.6312C26.372 14.5995 26.3148 14.5679 26.3447 14.5362C26.3883 14.5362 26.4319 14.5361 26.4754 14.5361C26.6168 14.5835 26.5675 14.6853 26.5321 14.7691C26.4159 15.0442 26.3176 15.3244 26.2452 15.6146C26.205 15.7756 26.1957 15.9403 26.1607 16.1127C26.1918 16.0615 26.1673 15.9873 26.2454 15.9808C26.269 16.0522 26.1911 16.1763 26.348 16.1786C26.372 16.2097 26.4209 16.1749 26.4418 16.214Z" fill="#F2A345"/>
<path d="M20.4552 11.7351C20.2822 11.5438 20.0356 11.4658 19.8276 11.3284C19.7491 11.2765 19.5951 11.2349 19.615 11.1658C19.6414 11.0745 19.7842 11.1309 19.8749 11.1293C20.2178 11.1231 20.5609 11.125 20.9038 11.1272C21.4033 11.1305 21.8871 11.0218 22.3715 10.9213C22.6757 10.8582 22.9778 10.7964 23.2877 10.8752C23.3213 10.8838 23.3501 10.8847 23.3799 10.8687C23.4171 11.0387 23.3124 11.1703 23.2544 11.3128C23.2106 11.4202 23.1605 11.5324 23.0214 11.5523C22.9211 11.5588 22.8223 11.5583 22.7401 11.4868C22.5301 11.368 22.4515 11.4022 22.3844 11.6415L22.3852 11.6401C21.7401 11.6359 21.0969 11.6705 20.4552 11.7351Z" fill="#E2E3EB"/>
<path d="M23.0238 11.5173C23.1019 11.5056 23.1393 11.4496 23.1722 11.3856C23.2574 11.2197 23.3293 11.0486 23.3797 10.8687C23.3911 10.8475 23.4026 10.8263 23.4141 10.8051C23.4713 10.922 23.5882 10.8894 23.6785 10.8974C24.0195 10.9277 24.3474 10.866 24.663 10.7311C24.7417 10.6974 24.8294 10.634 24.9157 10.7164C24.9987 10.7957 24.9956 10.8889 24.9682 10.9972C24.9138 11.212 24.817 11.4073 24.7222 11.6045C24.6807 11.691 24.643 11.7792 24.6035 11.8666C24.5718 11.886 24.5409 11.9208 24.5084 11.9223C24.2058 11.9364 23.9028 11.9555 23.6004 11.9489C23.4962 11.9466 23.3889 11.9352 23.2829 11.9314C23.0761 11.924 22.9051 11.8638 22.8359 11.6439C22.8524 11.5331 22.9715 11.5749 23.0238 11.5173Z" fill="#FBBC8B"/>
<path d="M22.3848 11.6415C22.4299 11.6163 22.4609 11.6219 22.4855 11.6739C22.6425 12.0072 22.9481 12.1333 23.2757 12.1779C24.1067 12.2909 24.9245 12.1626 25.7361 11.9894C25.8886 11.9568 26.0136 11.8622 26.1646 11.7662C26.1458 11.9002 26.0604 11.9409 25.9812 11.9843C25.7079 12.1342 25.4024 12.1752 25.1024 12.2101C24.6472 12.2631 24.1909 12.3254 23.7304 12.3136C23.4793 12.3071 23.2302 12.2772 22.9892 12.2013C22.6995 12.1101 22.4664 11.9566 22.3855 11.6401L22.3848 11.6415Z" fill="#D4562C"/>
<path d="M27.6954 15.8895C28.0064 15.9513 28.3217 15.9913 28.6275 16.0797C28.9094 16.1612 29.1854 16.2582 29.4517 16.3815C29.5128 16.4098 29.5762 16.4389 29.6225 16.5134C29.5064 16.5404 29.4268 16.4726 29.3409 16.436C28.8141 16.2117 28.2682 16.063 27.6966 16.0137C27.2909 15.9217 26.8832 15.9351 26.4746 15.9891C26.4336 15.9945 26.3717 16.049 26.3584 15.9757C26.348 15.9188 26.4243 15.9143 26.4675 15.9065C26.7737 15.8508 27.083 15.836 27.3921 15.8706C27.4935 15.882 27.5944 15.8827 27.6954 15.8895Z" fill="#D55B33"/>
<path d="M26.2441 15.9808C26.2134 16.0101 26.2197 16.0486 26.216 16.0855C26.2111 16.1346 26.2361 16.2212 26.1671 16.2149C26.094 16.2084 26.1176 16.1188 26.1239 16.0652C26.155 15.8011 26.204 15.5398 26.2911 15.2881C26.3555 15.1022 26.4271 14.9185 26.5041 14.7374C26.5378 14.658 26.538 14.5953 26.4741 14.5362C26.4419 14.3801 26.3439 14.2391 26.3556 14.0384C26.4795 14.1713 26.4825 14.3214 26.5379 14.448C26.5481 14.4713 26.557 14.5067 26.5748 14.5129C26.6145 14.5269 26.623 14.4844 26.6385 14.4587C26.7738 14.2349 26.9077 14.0103 27.0454 13.7881C27.0683 13.7511 27.0953 13.6794 27.1487 13.7122C27.2196 13.7558 27.15 13.8062 27.1238 13.844C26.7511 14.3843 26.4584 14.9618 26.3059 15.6038C26.2765 15.7274 26.2642 15.855 26.2441 15.9808Z" fill="#CD572D"/>
<path d="M26.4415 16.214C26.4098 16.2033 26.3687 16.2175 26.3477 16.1785C26.7752 16.16 27.2012 16.1973 27.6279 16.2111C27.9302 16.2639 28.2326 16.3165 28.5348 16.3696C28.7207 16.4023 28.8891 16.4831 29.0589 16.5605C29.0941 16.5765 29.1296 16.5863 29.1219 16.6368C29.1126 16.6987 29.0863 16.737 29.016 16.7215C28.7741 16.5211 28.4797 16.4426 28.1837 16.3756C28.0239 16.3394 27.8624 16.2971 27.695 16.3048C27.5802 16.2532 27.4532 16.2567 27.3346 16.251C27.0371 16.2369 26.7405 16.1912 26.4415 16.214Z" fill="#C75636"/>
<path d="M23.4717 15.7036C23.2261 15.7627 23.0202 15.712 22.8205 15.6843C22.3561 15.6199 21.8961 15.5252 21.4414 15.4078C21.4259 15.4038 21.408 15.4057 21.3943 15.3988C21.3497 15.3763 21.2624 15.3759 21.2795 15.3131C21.2999 15.2383 21.3704 15.2971 21.414 15.3077C21.9375 15.4346 22.4641 15.5434 22.9982 15.6169C23.1435 15.6369 23.298 15.6065 23.4717 15.7036Z" fill="#D05A2B"/>
<path d="M26.3437 14.5362C26.3476 14.5679 26.3937 14.5995 26.3439 14.6312C26.1557 14.4354 25.9675 14.2397 25.7793 14.0439C25.7844 14.0392 25.7895 14.0345 25.7946 14.0298C25.9776 14.1986 26.1607 14.3674 26.3437 14.5362Z" fill="#D4662C"/>
<path d="M23.0241 11.5173C22.9905 11.6026 22.8928 11.5927 22.8363 11.6439C22.7281 11.638 22.7459 11.5553 22.7402 11.4868C22.8348 11.497 22.9295 11.5072 23.0241 11.5173Z" fill="#B85B31"/>
<path d="M22.9056 8.4859C23.0696 8.13729 23.3055 7.8359 23.534 7.52965C23.5947 7.55964 23.6418 7.61561 23.7179 7.61757C23.7531 7.61847 23.7978 7.62563 23.8042 7.67264C23.8098 7.71404 23.7796 7.7431 23.7492 7.76462C23.6924 7.80481 23.6383 7.84726 23.5889 7.89673C23.4092 8.07667 23.408 8.08279 23.5575 8.29517C23.5568 8.29418 23.5585 8.29105 23.558 8.29056C23.4162 8.15177 23.4314 8.02815 23.5826 7.90305C23.7506 7.76395 23.9104 7.61496 24.0933 7.49415C23.9849 7.56626 23.8668 7.60162 23.737 7.59282C23.6654 7.58797 23.5971 7.5743 23.5765 7.48899C23.5969 7.384 23.6174 7.27902 23.638 7.17403C23.6738 7.08487 23.7647 7.08803 23.8351 7.05811C23.9175 7.02309 24.009 7.01026 24.0921 6.9538C24.0184 6.91644 23.9606 6.96606 23.8992 6.97315C23.8446 6.97944 23.79 7.0264 23.7362 6.97128C23.8398 6.73983 24.0469 6.60442 24.2276 6.44506C24.3066 6.37531 24.3917 6.31236 24.4741 6.24634C24.531 6.26577 24.5757 6.27903 24.5628 6.36617C24.5375 6.53746 24.6402 6.6376 24.813 6.63287C24.9078 6.63027 24.9849 6.59871 25.1772 6.48383C25.2964 6.67824 25.3263 6.6867 25.5834 6.59836C25.6131 6.61548 25.6007 6.64332 25.5995 6.66773C25.5875 6.90666 25.6888 6.98704 25.9096 6.90363C25.9752 6.87882 26.0087 6.87094 26.0124 6.95359C26.0165 7.04311 26.07 7.10534 26.1417 7.14495C26.3225 7.24485 26.3361 7.42765 26.3764 7.59742C26.396 7.67954 26.337 7.71695 26.2747 7.73732C26.0343 7.81583 25.9397 7.99713 25.902 8.23072C25.82 8.73891 25.492 9.09202 25.1205 9.40456C24.9121 9.57984 24.6439 9.60175 24.3867 9.53682C24.1593 9.47945 23.938 9.45833 23.7055 9.48779C23.485 9.51573 23.4608 9.4817 23.5047 9.26971C23.5159 9.21582 23.5044 9.1754 23.4603 9.1435C23.4047 9.10326 23.3429 9.08289 23.28 9.11675C23.2051 9.15716 23.1352 9.20709 23.0629 9.25242C22.9353 9.33233 22.871 9.30842 22.8299 9.16066C22.7803 8.98254 22.8163 8.812 22.879 8.64303C22.8971 8.59414 22.9578 8.54808 22.9056 8.4859Z" fill="#FBBC8C"/>
<path d="M23.7366 6.97134C23.8434 6.94293 23.9495 6.91161 24.0573 6.88751C24.1008 6.87777 24.1625 6.85944 24.1831 6.91695C24.2061 6.98161 24.1393 6.99185 24.0989 7.00716C23.9463 7.06512 23.7921 7.1188 23.6384 7.17408C23.5725 7.15983 23.5837 7.1178 23.6021 7.0732C23.6469 7.03925 23.6918 7.0053 23.7366 6.97134Z" fill="#4C272E"/>
<path d="M26.2825 9.71846C26.096 9.71126 25.9057 9.71814 25.7559 9.57554C25.8438 9.34639 25.918 9.10988 26.0993 8.93038C26.2856 8.74604 26.5729 8.69293 26.8125 8.79888C26.993 8.8787 27.055 9.02277 26.9822 9.20305C26.8551 9.51778 26.6415 9.71735 26.2825 9.71846Z" fill="#FBBA8B"/>
<path d="M14.1289 3.25622C14.3472 3.1347 14.5734 3.06212 14.8225 3.10849C14.8584 3.11517 14.9046 3.12329 14.8984 3.17186C14.8938 3.20789 14.8528 3.21164 14.8205 3.21367C14.59 3.22812 14.3594 3.24209 14.1289 3.25622Z" fill="#4D292C"/>
<path d="M14.8047 3.77947C14.696 3.98279 14.4877 4.05405 14.3193 3.94802C14.2503 3.90459 14.1947 3.84973 14.1081 3.91098C14.0848 3.92744 14.0427 3.92525 14.027 3.88729C14.0129 3.85309 14.0437 3.8459 14.0659 3.83164C14.0952 3.81283 14.268 3.82066 14.3042 3.84697C14.4326 3.94044 14.5601 3.93497 14.6891 3.84646C14.7222 3.82372 14.7441 3.77497 14.8047 3.77947Z" fill="#552F2D"/>
<path d="M15.3986 5.07371C15.3756 5.13326 15.3226 5.146 15.2694 5.14745C15.0723 5.15282 14.8786 5.13343 14.6953 5.05323C14.7123 5.00741 14.751 4.98628 14.7941 4.98131C14.954 4.96288 15.1146 4.96392 15.2746 4.98147C15.3307 4.98763 15.372 5.02309 15.3986 5.07371Z" fill="#C45C4C"/>
<path d="M12.9315 3.35999C12.8136 3.38652 12.6905 3.34748 12.6716 3.50015C12.6491 3.6829 12.7585 3.91578 12.9139 3.98937C12.9552 4.00897 13.0004 4.02057 13.0406 4.05326C12.9769 4.06963 12.9175 4.05122 12.862 4.0212C12.7011 3.93436 12.5776 3.63967 12.6258 3.4627C12.6643 3.32115 12.7543 3.28381 12.9315 3.35999Z" fill="#A75E3D"/>
<path d="M15.4901 4.01624C15.6879 4.47548 15.6634 4.55314 15.1816 4.63642C15.2196 4.57345 15.2803 4.57126 15.3292 4.55172C15.566 4.45728 15.5726 4.44254 15.5048 4.19909C15.4897 4.14491 15.4514 4.09167 15.4901 4.01624Z" fill="#9D472D"/>
<path d="M15.5918 3.79487C15.8364 3.99017 15.898 3.98926 16.1036 3.77551C16.0967 3.92062 16.0106 4.01313 15.876 4.01987C15.7295 4.0272 15.6104 3.93297 15.5918 3.79487Z" fill="#552F2F"/>
<path d="M15.397 5.07363C15.1652 4.97865 14.93 4.99552 14.6937 5.05313C14.6661 5.00664 14.6661 5.00664 14.7612 4.95047C14.9696 4.87004 15.1733 4.89085 15.374 4.97861C15.4055 5.00451 15.4103 5.03687 15.397 5.07363Z" fill="#822729"/>
<path d="M15.3745 4.97865C15.1723 4.92597 14.9666 4.94674 14.7617 4.95051C14.7656 4.91446 14.7849 4.89343 14.8206 4.88442C15.0193 4.83431 15.2079 4.84145 15.3745 4.97865Z" fill="#E08568"/>
<path d="M23.5754 7.48897C23.8065 7.64514 23.9923 7.52494 24.2052 7.34888C24.1557 7.48923 24.0917 7.55697 24.0104 7.60597C23.8578 7.69785 23.7273 7.81672 23.5981 7.93647C23.4434 8.07976 23.4445 8.12103 23.5853 8.27946C23.61 8.30715 23.6355 8.33403 23.6669 8.36812C23.4334 8.31171 23.3569 8.07966 23.5142 7.92194C23.5967 7.83916 23.6907 7.76776 23.7919 7.6805C23.6923 7.64354 23.5479 7.68539 23.5329 7.52956C23.547 7.51609 23.5612 7.50253 23.5754 7.48897Z" fill="#7C3A2C"/>
<path d="M22.9023 8.86518C22.9165 8.70448 22.9712 8.61884 23.0902 8.57851C23.4178 8.46744 23.7283 8.53319 24.012 8.70314C24.1926 8.81129 24.2175 9.01763 24.2346 9.21202C24.2376 9.24647 24.2319 9.29554 24.1854 9.30213C24.1262 9.31051 24.1034 9.25862 24.0852 9.21595C23.9684 8.94237 23.7404 8.81468 23.4674 8.75979C23.2848 8.72307 23.0954 8.70126 22.9023 8.86518Z" fill="#472531"/>
<path d="M25.6687 7.92548C25.6616 7.94283 25.6587 7.96669 25.6453 7.97963C25.6191 8.00481 25.5959 7.98265 25.5785 7.96323C25.3743 7.73654 25.1697 7.51026 24.9685 7.28108C24.9387 7.24719 24.9027 7.19508 24.9453 7.15212C24.9838 7.11337 25.0249 7.15675 25.0588 7.17846C25.3028 7.33476 25.4986 7.53564 25.6231 7.80035C25.6412 7.83877 25.6525 7.8804 25.6687 7.92548Z" fill="#442430"/>
<path d="M24.5821 7.81433C24.7463 8.06178 24.9496 8.14951 25.2242 8.02242C25.1597 8.16626 25.027 8.21873 24.8715 8.18433C24.6838 8.14283 24.5785 8.02198 24.5821 7.81433Z" fill="#502B2E"/>
<path d="M23.877 9.14142C23.6347 9.02526 23.4195 8.91838 23.1426 8.89949C23.3341 8.81896 23.7257 8.95274 23.877 9.14142Z" fill="#A75335"/>
<path d="M24.467 6.8717C24.373 6.99071 24.2878 7.11055 24.3218 7.28696C24.2012 7.14553 24.26 6.97965 24.467 6.8717Z" fill="#A35133"/>
<path d="M26.7358 9.15649C26.6907 9.45145 26.4451 9.58336 26.1562 9.47557C26.3907 9.44604 26.6563 9.4744 26.7358 9.15649Z" fill="#AB5237"/>
<path d="M26.8591 9.04341C26.6095 8.91812 26.3932 8.98855 26.1641 9.07016C26.3398 8.89454 26.7022 8.873 26.8591 9.04341Z" fill="#A55134"/>
</svg>
